<svg width="64" height="29" viewBox="0 0 64 29" fill="none" xmlns="http://www.w3.org/2000/svg">
<path d="M16.1329 17.7461C15.6774 17.7461 15.2801 17.8338 14.9474 18.0037C14.6196 18.1703 14.2435 18.4755 13.8201 18.9227V18.0546H11.4707V28.0682H13.9324L13.9307 22.8603C13.9307 20.9515 14.4496 19.9946 15.7051 19.9946C15.9224 19.9946 16.1446 20.0423 16.3679 20.1284C16.7718 19.4406 17.2385 18.7939 17.7613 18.1982C17.1985 17.9045 16.6551 17.7461 16.1329 17.7461Z" fill="#E1251C"/>
<path d="M60.2448 22.769L63.572 18.0527H60.7653L58.8381 20.783L56.9053 18.0527H54.0542L57.4159 22.797L53.6992 28.0679H56.5064L58.8203 24.7852L61.1476 28.0679H64.0003" fill="#E1251C"/>
<mask id="mask0_76_30657" style="mask-type:luminance" maskUnits="userSpaceOnUse" x="0" y="17" width="11" height="12">
<path d="M0 17.7188H10.24V28.322H0V17.7188Z" fill="white"/>
</mask>
<g mask="url(#mask0_76_30657)">
<path d="M7.09569 25.1943C6.59013 25.7456 5.95235 26.0174 5.18402 26.0191C4.43957 26.0185 3.8118 25.7385 3.30402 25.1779C2.79513 24.6183 2.54013 23.9042 2.54013 23.0384C2.54013 22.1752 2.7918 21.471 3.29124 20.9202C3.79235 20.3689 4.42013 20.0971 5.17735 20.0971C5.95235 20.0971 6.59291 20.3678 7.09902 20.9071C7.60513 21.4496 7.76902 22.0667 7.76735 22.9392C7.76735 23.8319 7.60346 24.6452 7.09569 25.1943ZM7.74791 19.1468C7.31124 18.6964 6.83624 18.3566 6.32235 18.1324C5.80958 17.9045 5.2568 17.7921 4.67291 17.791C3.40013 17.791 2.31957 18.2853 1.42791 19.2723C0.537352 20.2604 0.0934634 21.5269 0.0917969 23.0729C0.0917969 24.5641 0.550686 25.813 1.47013 26.8143C2.38957 27.8188 3.47957 28.3219 4.73957 28.3219C5.30235 28.323 5.82457 28.2199 6.30457 28.015C6.78624 27.8089 7.26624 27.4741 7.74458 27.0055V28.0665H10.2062V18.053H7.74791" fill="#E1251C"/>
</g>
<mask id="mask1_76_30657" style="mask-type:luminance" maskUnits="userSpaceOnUse" x="16" y="17" width="11" height="12">
<path d="M16.6406 17.7188H26.8806V28.322H16.6406V17.7188Z" fill="white"/>
</mask>
<g mask="url(#mask1_76_30657)">
<path d="M23.6724 25.1943C23.1663 25.7456 22.5274 26.0174 21.7619 26.0191C21.0157 26.0185 20.3885 25.7385 19.8791 25.1779C19.3702 24.6183 19.1152 23.9042 19.1169 23.0384C19.1185 22.1752 19.3669 21.471 19.868 20.9202C20.3691 20.3689 20.9969 20.0971 21.7535 20.0971C22.5274 20.0971 23.168 20.3678 23.6757 20.9071C24.1819 21.4496 24.3435 22.0667 24.3419 22.9392C24.3419 23.8319 24.1802 24.6452 23.6724 25.1943ZM24.3241 19.1468C23.888 18.6964 23.4113 18.3566 22.9002 18.1324C22.3846 17.9045 21.8352 17.7921 21.248 17.791C19.978 17.791 18.8946 18.2853 18.0046 19.2723C17.1141 20.2604 16.6696 21.5269 16.668 23.0729C16.6669 24.5641 17.1252 25.813 18.0469 26.8143C18.9663 27.8188 20.0557 28.3219 21.3174 28.3219C21.8785 28.323 22.4013 28.2199 22.8791 28.015C23.3613 27.8089 23.8413 27.4741 24.3191 27.0055V28.0665H26.7813V18.053H24.3241" fill="#E1251C"/>
</g>
<path d="M41.5925 18.2989H41.5931C41.0642 17.9673 40.4525 17.8018 39.7553 17.8018C39.0808 17.8013 38.4625 17.9558 37.8936 18.266C37.3258 18.574 36.8481 19.0245 36.4553 19.6202C36.1569 19.0245 35.7614 18.5723 35.2697 18.2638C34.7753 17.9536 34.2236 17.7991 33.6108 17.7969C33.0042 17.7969 32.4447 17.9142 31.9308 18.1504C31.4164 18.3844 30.9497 18.7389 30.5297 19.2157V18.0544H28.0664L28.0625 28.068H30.5247L30.5264 23.6251C30.5275 22.665 30.6103 21.9608 30.7758 21.5136C30.9431 21.0669 31.1925 20.7206 31.5269 20.4712C31.8625 20.2252 32.2336 20.1002 32.6442 20.1002C33.0103 20.1008 33.3253 20.1989 33.5847 20.3951C33.8442 20.5918 34.0369 20.8905 34.1669 21.2911C34.2964 21.6922 34.3614 22.3384 34.3614 23.2344L34.3569 28.068H36.8214V23.5643C36.8253 22.6091 36.9058 21.9164 37.0686 21.4856C37.2319 21.0538 37.4819 20.7168 37.8158 20.4712C38.1481 20.2268 38.5292 20.1052 38.9531 20.1052C39.5075 20.1052 39.9208 20.3063 40.1997 20.7052C40.4786 21.108 40.6164 21.8753 40.6164 23.0053L40.6131 28.068H43.0747L43.0781 22.2036C43.0781 21.0006 42.9631 20.1315 42.7325 19.5988C42.5025 19.0639 42.1231 18.6304 41.5925 18.2989Z" fill="#E1251C"/>
<mask id="mask2_76_30657" style="mask-type:luminance" maskUnits="userSpaceOnUse" x="44" y="17" width="11" height="12">
<path d="M44.0898 17.7188H54.4721V28.322H44.0898V17.7188Z" fill="white"/>
</mask>
<g mask="url(#mask2_76_30657)">
<path d="M47.5217 20.5121C48.0389 20.1247 48.64 19.9318 49.325 19.9334C49.9589 19.9334 50.5134 20.1049 50.9884 20.4497C51.4689 20.796 51.7884 21.2432 51.95 21.794L46.6195 21.7907C46.8956 21.1807 47.1972 20.7533 47.5217 20.5121ZM51.6728 25.115C51.0145 25.7814 50.2267 26.1146 49.31 26.1146C48.5417 26.1135 47.9139 25.8987 47.4178 25.4729C46.9228 25.047 46.6195 24.4733 46.5045 23.7504L54.4022 23.7554L54.4117 23.2786C54.4117 21.629 53.9306 20.3028 52.9639 19.295C51.9989 18.2899 50.7434 17.7868 49.2 17.7852C47.7467 17.7852 46.5367 18.2882 45.575 19.2999C44.6106 20.3077 44.1289 21.5764 44.1289 23.1037C44.1272 24.5966 44.6106 25.8357 45.5739 26.827C46.5367 27.8201 47.7889 28.3149 49.3234 28.3149C50.3122 28.316 51.165 28.1368 51.8867 27.7773C52.6056 27.4195 53.2234 26.8632 53.7389 26.1146" fill="#E1251C"/>
</g>
<path d="M59.2949 11.126H62.0621V0.322266H59.2949V11.126Z" fill="#E1251C"/>
<path d="M54.9463 13.6552C55.5541 13.3478 56.0763 12.9093 56.4191 12.2555C56.918 11.3102 57.0197 10.5797 57.0197 9.52582V2.73633H54.2447L54.2369 8.6572C54.2369 9.56473 54.268 10.7561 53.5352 11.4176C53.2702 11.6483 52.9508 11.81 52.6152 11.9174L54.2602 13.9396C54.4941 13.8552 54.728 13.7632 54.9463 13.6552Z" fill="#E1251C"/>
<path d="M49.1777 11.126H51.945V0.322266H49.1777V11.126Z" fill="#E1251C"/>
<path d="M43.1199 8.74998C42.6055 8.74998 42.1772 8.56584 41.826 8.21182C41.4755 7.85012 41.296 7.38923 41.296 6.8275C41.296 6.274 41.4677 5.81256 41.8105 5.45908C42.1538 5.10561 42.5899 4.92859 43.1122 4.92092C43.6349 4.92092 44.0633 5.09739 44.4066 5.45908C44.7494 5.81256 44.921 6.274 44.921 6.8275C44.9288 7.38156 44.7572 7.85012 44.4066 8.21182C44.0555 8.56584 43.6272 8.74998 43.1199 8.74998ZM46.1683 9.8263C46.9322 9.0344 47.3138 8.04248 47.3138 6.85052C47.3138 5.62075 46.9477 4.61293 46.2072 3.82871C44.7572 2.2756 41.756 2.29862 40.2283 3.79802C39.3238 4.6902 38.8872 5.61253 38.8872 6.85052V7.08124C38.8872 7.23523 38.8949 7.36566 38.8872 7.49664C38.8716 7.92739 38.8249 8.12742 38.5055 8.44254C38.2249 8.71929 37.8505 8.71929 37.461 8.71929H37.2038C36.9388 7.86601 36.4866 6.92779 35.8316 6.31236C34.8027 5.34345 33.501 4.85132 31.8716 4.85132H26.5555C26.7349 4.29014 27.0777 3.72129 27.5922 3.33658C28.1222 2.93707 28.7149 2.79074 29.3694 2.76773H34.0855V0.576172H29.3694C27.7638 0.629878 26.4388 1.13735 25.4094 2.11393C24.3183 3.14422 23.7727 4.75925 23.7727 6.45101L23.7805 6.96615H31.8794C32.5344 6.98917 33.111 7.17386 33.6177 7.50431C34.156 7.85834 34.4049 8.48857 34.4049 8.71929H21.2316C21.3872 8.14277 21.4733 7.34265 21.4733 6.32003V2.76006H18.6983V5.44374C18.6983 6.02793 18.6899 7.31963 18.5499 7.88903C18.4094 8.45021 18.1605 8.73463 17.4977 8.73463H16.1255C16.2894 8.15811 16.3672 7.35087 16.3672 6.32003V2.76006H13.5922V5.44374C13.5922 6.02793 13.5844 7.31963 13.4438 7.88903C13.3038 8.45021 13.0622 8.73463 12.3916 8.73463H11.2383V2.76006H8.46326V8.67325C8.46326 9.58024 8.49438 10.7722 7.75382 11.4337C6.81826 12.2721 5.1816 12.2486 4.16049 11.6337C2.99104 10.9185 2.69437 9.48817 2.85049 8.22716C2.92049 7.70434 3.06104 7.24291 3.27937 6.85052L0.535485 5.97423C0.324929 6.4817 0.168818 7.05055 0.075485 7.67366C-0.516737 11.6567 2.4216 15.0479 7.27826 14.256C7.33271 14.2483 7.38715 14.2324 7.4416 14.2248C8.7516 13.9633 9.99882 13.4789 10.6299 12.2721C10.8483 11.8491 10.9966 11.5181 11.0822 11.1339H12.3916C12.8283 11.1339 13.1788 11.1032 13.4988 11.0259C13.9116 10.9262 14.3172 10.7799 14.6916 10.5568C14.7927 10.4954 14.886 10.4341 14.9722 10.365V11.1339H17.4899C17.9266 11.1339 18.2772 11.1032 18.5966 11.0259C19.0177 10.9262 19.4227 10.7799 19.7816 10.5568L19.8983 10.4801V11.1339H36.8838C37.5388 11.1339 38.186 11.1339 38.8172 10.9339C39.1133 10.8418 39.4099 10.6955 39.6749 10.5338C39.901 10.3957 40.0955 10.2417 40.2672 10.0652C41.3972 11.0413 43.1199 11.3104 44.5466 10.8264C45.1705 10.6111 45.7238 10.296 46.1683 9.8263Z" fill="#E1251C"/>
</svg>
