<svg width="94" height="30" viewBox="0 0 94 30" fill="none" xmlns="http://www.w3.org/2000/svg">
<mask id="mask0_76_30682" style="mask-type:luminance" maskUnits="userSpaceOnUse" x="0" y="0" width="94" height="22">
<path d="M0 0.822266H93.9999V21.6737H0V0.822266Z" fill="white"/>
</mask>
<g mask="url(#mask0_76_30682)">
<path d="M93.9993 0.824219V21.5282H0V0.824219H93.9993Z" fill="#FFCB04"/>
</g>
<path d="M16.5306 4.54102L13.5273 8.61291C13.5273 8.61291 29.0969 8.61291 29.8954 8.61291C30.7225 8.61291 30.7115 8.92708 30.3074 9.47331C29.8967 10.0286 29.2095 10.9937 28.7911 11.5574C28.5787 11.8438 28.1953 12.3655 29.4667 12.3655C30.8119 12.3655 36.1604 12.3655 36.1604 12.3655C36.1604 12.3655 37.2394 10.9 38.1436 9.67435C39.3742 8.00849 38.2498 4.54102 33.8521 4.54102C29.9149 4.54102 16.5306 4.54102 16.5306 4.54102Z" fill="#D71635"/>
<path d="M12.3125 17.8089L18.345 9.62891C18.345 9.62891 25.0316 9.62891 25.8302 9.62891C26.6579 9.62891 26.6469 9.94243 26.2421 10.4893C25.8321 11.044 25.1333 11.9994 24.7149 12.5631C24.5024 12.8494 24.119 13.3711 25.3904 13.3711C26.735 13.3711 35.4184 13.3711 35.4184 13.3711C34.5848 14.5114 31.8795 17.8089 27.0219 17.8089C23.0853 17.8089 12.3125 17.8089 12.3125 17.8089Z" fill="#D71635"/>
<path d="M46.8588 13.3691L43.5873 17.8076H34.959C34.959 17.8076 38.2278 13.3698 38.231 13.3698L46.8588 13.3691Z" fill="#D71635"/>
<path d="M60.0785 12.3655H38.9727L44.7441 4.54102H53.3705L50.0628 9.02727H53.9133L57.2222 4.54102H65.848L60.0785 12.3655Z" fill="#D71635"/>
<path d="M59.336 13.3711L56.0633 17.8089H47.4375C47.4375 17.8089 50.707 13.3711 50.7102 13.3711H59.336Z" fill="#D71635"/>
<path d="M0 15.1191H12.712L12.0176 16.0623H0V15.1191Z" fill="#D71635"/>
<path d="M0 13.3711H14.0034L13.3078 14.3129H0V13.3711Z" fill="#D71635"/>
<path d="M0 16.8711H11.4211L10.7301 17.8078H0V16.8711Z" fill="#D71635"/>
<mask id="mask1_76_30682" style="mask-type:luminance" maskUnits="userSpaceOnUse" x="81" y="15" width="13" height="2">
<path d="M81.2441 15.0547H93.9995V16.2131H81.2441V15.0547Z" fill="white"/>
</mask>
<g mask="url(#mask1_76_30682)">
<path d="M93.9987 16.0642H81.3359L82.0302 15.1211H93.9987V16.0642Z" fill="#D71635"/>
</g>
<mask id="mask2_76_30682" style="mask-type:luminance" maskUnits="userSpaceOnUse" x="79" y="16" width="15" height="2">
<path d="M79.918 16.709H93.9998V17.8674H79.918V16.709Z" fill="white"/>
</mask>
<g mask="url(#mask2_76_30682)">
<path d="M93.9991 17.8078L80.0488 17.8091L80.7399 16.8711H93.9991V17.8078Z" fill="#D71635"/>
</g>
<mask id="mask3_76_30682" style="mask-type:luminance" maskUnits="userSpaceOnUse" x="82" y="13" width="12" height="2">
<path d="M82.5703 13.2344H93.9992V14.3928H82.5703V13.2344Z" fill="white"/>
</mask>
<g mask="url(#mask3_76_30682)">
<path d="M83.3213 13.3711H93.9995V14.3129L82.627 14.3142L83.3213 13.3711Z" fill="#D71635"/>
</g>
<path d="M77.7936 4.54102L72.0235 12.3655H62.8828C62.8828 12.3655 68.6543 4.54102 68.6575 4.54102H77.7936Z" fill="#D71635"/>
<path d="M62.1441 13.3711C62.1441 13.3711 61.5133 14.2315 61.207 14.6446C60.1234 16.1062 61.0813 17.8089 64.6176 17.8089C68.7006 17.8089 78.4708 17.8089 78.4708 17.8089L81.7429 13.3711H62.1441Z" fill="#D71635"/>
<mask id="mask4_76_30682" style="mask-type:luminance" maskUnits="userSpaceOnUse" x="0" y="24" width="94" height="2">
<path d="M0 24.8184H93.9999V25.4803H0V24.8184Z" fill="white"/>
</mask>
<g mask="url(#mask4_76_30682)">
<path d="M0 24.8926H93.9999V25.3619H0V24.8926Z" fill="#FFCB04"/>
</g>
<mask id="mask5_76_30682" style="mask-type:luminance" maskUnits="userSpaceOnUse" x="0" y="26" width="94" height="2">
<path d="M0 26.9688H93.9999V27.6307H0V26.9688Z" fill="white"/>
</mask>
<g mask="url(#mask5_76_30682)">
<path d="M0 27.082H93.9999V27.5513H0V27.082Z" fill="#FFCB04"/>
</g>
<mask id="mask6_76_30682" style="mask-type:luminance" maskUnits="userSpaceOnUse" x="0" y="29" width="94" height="1">
<path d="M0 29.1211H93.9999V29.783H0V29.1211Z" fill="white"/>
</mask>
<g mask="url(#mask6_76_30682)">
<path d="M0 29.2695H93.9999V29.7382H0V29.2695Z" fill="#FFCB04"/>
</g>
<path d="M31.5645 29.7396H34.3935L34.8449 29.1293H32.74L33.9201 27.5326H35.8372L36.2893 26.9211H34.3721L35.4188 25.5054H37.5244L37.9758 24.8945H35.1468L31.5645 29.7396Z" fill="#D71635"/>
<path d="M35.0352 29.7396H35.9037L38.8629 27.6852L38.8338 29.7396H39.7451L39.7522 27.2062L43.1616 24.8945H42.3364L39.6227 26.755L39.6524 24.8945H38.7846L38.758 27.2204L35.0352 29.7396Z" fill="#D71635"/>
<path fill-rule="evenodd" clip-rule="evenodd" d="M40.4043 29.7396H41.1278L42.5598 27.8028H43.2683C44.1803 27.8028 45.3377 27.4214 46.133 26.3458C46.9491 25.2417 46.3454 24.8945 45.3105 24.8945H43.9866L40.4043 29.7396ZM44.2586 25.5054H44.8733C45.3221 25.5054 45.8234 25.7271 45.372 26.3387C44.8992 26.9773 44.1757 27.1926 43.7275 27.1926H43.0112L44.2586 25.5054Z" fill="#D71635"/>
<path fill-rule="evenodd" clip-rule="evenodd" d="M48.4227 25.5054H49.117C49.7828 25.5054 49.9246 25.7827 49.6015 26.2204C49.2575 26.6852 48.6371 26.9773 47.9499 26.9773H47.3346L48.4227 25.5054ZM44.5684 29.7396H45.2918L46.8832 27.5882H47.3171C47.7005 27.5882 47.9395 27.5882 47.8145 28.0601L47.3469 29.7396H48.1714L48.6435 27.81C48.7051 27.5119 48.6733 27.4079 48.5108 27.3245L48.5211 27.3103C49.1785 27.2133 49.9428 26.7963 50.3787 26.2068C51.2362 25.0477 50.3864 24.8945 49.3884 24.8945H48.1507L44.5684 29.7396Z" fill="#D71635"/>
<path d="M48.9219 29.7396H51.7509L52.2024 29.1293H50.0974L51.2775 27.5326H53.1946L53.6467 26.9211H51.7289L52.7762 25.5054H54.8812L55.3332 24.8945H52.5042L48.9219 29.7396Z" fill="#D71635"/>
<mask id="mask7_76_30682" style="mask-type:luminance" maskUnits="userSpaceOnUse" x="52" y="24" width="7" height="6">
<path d="M52.7266 24.6523H58.8614V29.8219H52.7266V24.6523Z" fill="white"/>
</mask>
<g mask="url(#mask7_76_30682)">
<path d="M58.8187 24.9844C58.559 24.8661 58.2021 24.8105 57.8692 24.8105C56.958 24.8105 55.91 25.2689 55.2733 26.1299C54.16 27.6355 56.5512 27.3375 55.75 28.4202C55.329 28.9891 54.5862 29.2121 54.1742 29.2121C53.8051 29.2121 53.4735 29.0731 53.2992 28.9755L52.75 29.6213C53.0052 29.7254 53.2811 29.8224 53.6354 29.8224C54.6483 29.8224 55.7831 29.4132 56.548 28.3789C57.728 26.7822 55.3984 26.9974 56.0868 26.0672C56.4612 25.5604 57.0415 25.4214 57.4463 25.4214C57.8226 25.4214 57.9793 25.4841 58.2455 25.6225L58.8187 24.9844Z" fill="#D71635"/>
</g>
<mask id="mask8_76_30682" style="mask-type:luminance" maskUnits="userSpaceOnUse" x="56" y="24" width="7" height="6">
<path d="M56.209 24.6523H62.5096V29.8219H56.209V24.6523Z" fill="white"/>
</mask>
<g mask="url(#mask8_76_30682)">
<path d="M62.4366 24.9844C62.1762 24.8661 61.8193 24.8105 61.4864 24.8105C60.5751 24.8105 59.5272 25.2689 58.8912 26.1299C57.7772 27.6355 60.1684 27.3375 59.3679 28.4202C58.9469 28.9891 58.2034 29.2121 57.7914 29.2121C57.4223 29.2121 57.0906 29.0731 56.9171 28.9755L56.3672 29.6213C56.623 29.7254 56.8983 29.8224 57.2526 29.8224C58.2655 29.8224 59.4003 29.4132 60.1652 28.3789C61.3459 26.7822 59.0162 26.9974 59.704 26.0672C60.0784 25.5604 60.6587 25.4214 61.0635 25.4214C61.4404 25.4214 61.5965 25.4841 61.8627 25.6225L62.4366 24.9844Z" fill="#D71635"/>
</g>
</svg>
