<svg width="78" height="31" viewBox="0 0 78 31" fill="none" xmlns="http://www.w3.org/2000/svg">
<g clip-path="url(#clip0_76_30770)">
<path d="M31.2383 20.1144H41.1833V16.0527H36.123L31.2383 20.1144Z" fill="#FF6600"/>
<path d="M56.7734 20.1159H73.0462C75.7372 20.1159 77.9309 18.2944 77.9309 16.0542V3.85938H73.0462V15.236C73.0462 15.6841 72.3149 16.0444 71.4179 16.0444H69.7897V3.85938H64.9049V16.0444H61.6484V3.85938H56.7637V16.0444" fill="#660099"/>
<path d="M60.5871 3.85938H38.1328V20.1159H43.0176V18.2457C44.3533 19.4535 46.0986 20.1159 47.9023 20.1159C51.9486 20.1159 55.2246 16.8431 55.2246 12.8009C55.2246 10.999 54.5518 9.26522 53.3526 7.92106H59.7778M47.6878 9.75223L50.7396 12.8009L48.0973 15.4405L45.0456 12.3918L43.0078 14.4276V7.92106H49.5111L47.6878 9.75223Z" fill="#660099"/>
<path d="M0.0292969 19.5695C0.0292969 18.4786 0.916546 17.748 1.91105 17.748C2.9153 17.748 3.7928 18.4786 3.7928 19.5695C3.7928 20.6604 2.9153 21.3909 1.91105 21.3909C0.916546 21.4006 0.0292969 20.6604 0.0292969 19.5695ZM1.9208 19.3649C2.24255 19.3649 2.3303 19.1993 2.3303 19.0532C2.3303 18.8779 2.24255 18.7415 1.9208 18.7415H1.5113V19.3649H1.9208ZM1.5113 19.6474V20.6506H1.1798V18.4396H1.9988C2.47655 18.4396 2.7008 18.6441 2.7008 19.0435C2.7008 19.287 2.5253 19.4818 2.3108 19.511V19.5208C2.49605 19.55 2.57405 19.7156 2.61305 20.0175C2.6423 20.2123 2.6813 20.5532 2.74955 20.6312H2.35955C2.2718 20.4266 2.28155 20.1344 2.2133 19.8909C2.1548 19.7058 2.0573 19.6377 1.83305 19.6377L1.5113 19.6474ZM3.4418 19.5695C3.4418 18.6831 2.7983 18.0403 1.9208 18.0403C1.0433 18.0403 0.399796 18.6831 0.399796 19.5695C0.399796 20.4558 1.0433 21.0987 1.9208 21.0987C2.7983 21.0987 3.4418 20.4558 3.4418 19.5695Z" fill="#FF6600"/>
<path d="M9.99413 16.053V0.410156H5.10938V16.053V20.1147H15.0544H31.3271C34.0181 20.1147 36.2119 18.2933 36.2119 16.053V3.85821H31.3271V15.2348C31.3271 15.6829 30.5959 16.0433 29.6989 16.0433H28.0706V3.85821H23.1859V16.0433H19.9294V3.85821H15.0446V16.0433H9.99413V16.053Z" fill="#FF6600"/>
<path d="M38.259 22.1895H37.791V28.4622H38.259V22.1895Z" fill="#660099"/>
<path d="M36.3179 28.5007H32.6616C31.8231 28.5007 31.1406 27.8189 31.1406 26.9813V24.0981H31.6086V26.9813C31.6086 27.5559 32.0766 28.0332 32.6616 28.0332H35.8401V25.6176C35.8401 25.0624 35.3916 24.6144 34.8359 24.6144H32.7981V24.0592L34.5531 22.0332L34.9139 22.3449L33.3539 24.1468H34.8359C35.6549 24.1468 36.3179 24.8092 36.3179 25.6274V28.5007Z" fill="#660099"/>
<path d="M30.0894 28.5001C29.2509 28.5001 28.5684 27.8183 28.5684 26.9806V24.0391H29.0364V26.9806C29.0364 27.565 29.5044 28.0326 30.0894 28.0326C30.6744 28.0326 31.1424 27.565 31.1424 26.9806V24.0391H31.6104V26.9806C31.6104 27.8183 30.9279 28.5001 30.0894 28.5001Z" fill="#660099"/>
<path d="M27.5151 28.5001C26.6766 28.5001 25.9941 27.8183 25.9941 26.9806V24.0391H26.4621V26.9806C26.4621 27.565 26.9301 28.0326 27.5151 28.0326C28.1001 28.0326 28.5681 27.565 28.5681 26.9806V24.0391H29.0361V26.9806C29.0361 27.8183 28.3536 28.5001 27.5151 28.5001Z" fill="#660099"/>
<path d="M24.9411 28.5098H21.0703V28.0131H24.9411C25.5163 28.0131 25.9843 27.5455 25.9843 26.9709V24.0293H26.4816V26.9709C26.4816 27.828 25.7893 28.5098 24.9411 28.5098Z" fill="#660099"/>
<path d="M22.5119 28.5098H20.1816V24.0391H20.6789V28.0131H22.5119C22.8239 28.0131 23.0774 27.7598 23.0774 27.4482V24.0391H23.5746V27.4482C23.5746 28.0326 23.0969 28.5098 22.5119 28.5098Z" fill="#660099"/>
<path d="M7.00098 30.2826C5.99673 30.2826 5.17773 29.4644 5.17773 28.4611V24.0391H5.64573V28.4611C5.64573 29.2111 6.25023 29.815 7.00098 29.815C7.75173 29.815 8.35623 29.2111 8.35623 28.4611V24.0391H8.82423V28.4611C8.82423 29.4644 8.00523 30.2826 7.00098 30.2826Z" fill="#660099"/>
<path d="M12.4605 28.5098C11.622 28.5098 10.9395 27.828 10.9395 26.9904V24.0391H11.4367V26.9904C11.4367 27.5553 11.895 28.0228 12.4702 28.0228C13.0455 28.0228 13.5037 27.565 13.5037 26.9904V24.0391H14.001V26.9904C13.9815 27.828 13.299 28.5098 12.4605 28.5098Z" fill="#660099"/>
<path d="M9.88623 28.5098C9.04773 28.5098 8.36523 27.828 8.36523 26.9904V24.0391H8.86248V26.9904C8.86248 27.5553 9.32073 28.0228 9.89598 28.0228C10.4712 28.0228 10.9295 27.565 10.9295 26.9904V24.0391H11.4267V26.9904C11.4072 27.828 10.7247 28.5098 9.88623 28.5098Z" fill="#660099"/>
<path d="M16.8871 28.5098H15.0249C14.1766 28.5098 13.4941 27.8183 13.4941 26.9806V24.0391H13.9914V26.9806C13.9914 27.5553 14.4594 28.0228 15.0346 28.0228H16.3996V24.0488H16.8969V28.5098H16.8871Z" fill="#660099"/>
<path d="M18.7981 30.2935H18.3203V29.7968H18.7981C19.5586 29.7968 20.1826 29.1734 20.1826 28.4137V28.2578H20.6798V28.4137C20.6798 29.4559 19.8316 30.2935 18.7981 30.2935Z" fill="#660099"/>
<path d="M23.7215 29.4453H23.0293V30.1369H23.7215V29.4453Z" fill="#660099"/>
<path d="M16.9852 29.4453H16.293V30.1369H16.9852V29.4453Z" fill="#660099"/>
<path d="M15.9696 29.4453H15.2773V30.1369H15.9696V29.4453Z" fill="#660099"/>
</g>
<defs>
<clipPath id="clip0_76_30770">
<rect width="78" height="30" fill="white" transform="translate(0 0.322266)"/>
</clipPath>
</defs>
</svg>
