<svg width="74" height="32" viewBox="0 0 74 32" fill="none" xmlns="http://www.w3.org/2000/svg">
<path d="M33.4963 19.6118C33.4838 19.5998 33.4718 19.5874 33.4598 19.5754C33.3764 19.4834 33.2955 19.3888 33.2162 19.2931H33.0785C32.7645 19.3098 32.5501 19.3316 32.3357 19.3316C28.552 19.3337 24.7684 19.3342 20.9848 19.3321C19.8022 19.3316 19.4731 19.0062 19.4715 17.8351C19.4678 14.2708 19.4684 10.707 19.4673 7.14271C19.4673 6.88644 19.4673 6.63018 19.4673 6.35156H15.3384V7.06941C15.3389 10.8993 15.3175 14.7293 15.3535 18.5587C15.3629 19.59 15.0614 20.4799 14.4761 21.2835C13.1046 23.1657 11.2235 24.0332 8.91361 23.7276C6.60318 23.422 5.03559 22.0835 4.17537 19.9247C4.09347 19.7183 3.94793 19.3758 3.82325 19.3716C2.56709 19.3301 1.30885 19.3462 0 19.3462C0.0552961 19.6872 0.0803358 19.9283 0.134588 20.1628C1.02245 23.9911 4.12999 26.9545 7.90785 27.5799C12.0274 28.2624 15.9206 26.5507 18.0531 23.0856C18.3056 22.6755 18.5633 22.517 19.05 22.5201C22.5441 22.5419 26.0387 22.531 29.5328 22.5336C29.718 22.5336 29.9037 22.558 30.1076 22.5726L30.1384 22.6064C31.5354 21.6172 32.669 20.7351 33.3503 20.1326C33.4108 20.0843 33.6784 19.9143 33.4963 19.6118Z" fill="#002E60"/>
<mask id="mask0_76_30745" style="mask-type:luminance" maskUnits="userSpaceOnUse" x="50" y="6" width="24" height="17">
<path d="M50.2129 6.2793H74.0001V22.5138H50.2129V6.2793Z" fill="white"/>
</mask>
<g mask="url(#mask0_76_30745)">
<path d="M73.9976 17.5608V12.9984H69.7935C69.7935 14.6556 69.7961 16.2659 69.7925 17.8763C69.7899 18.9351 69.4571 19.2694 68.4017 19.2699C64.2853 19.272 60.1689 19.2714 56.053 19.2704C54.9512 19.2699 54.6372 18.9523 54.6367 17.8389C54.6351 14.2761 54.6362 10.7129 54.6362 7.14959V6.34961H50.3205C50.3027 6.49152 50.2824 6.57676 50.2824 6.66253C50.2803 11.5752 50.2761 16.4884 50.2834 21.4016C50.285 22.1465 50.6742 22.4958 51.4848 22.4958C58.5825 22.501 65.6802 22.501 72.778 22.4963C73.6444 22.4958 73.9898 22.1408 73.9955 21.2789C74.0033 20.0397 73.9976 18.8005 73.9976 17.5608Z" fill="#002E60"/>
</g>
<mask id="mask1_76_30745" style="mask-type:luminance" maskUnits="userSpaceOnUse" x="42" y="23" width="24" height="9">
<path d="M42.7344 23.5762H65.437V31.8213H42.7344V23.5762Z" fill="white"/>
</mask>
<g mask="url(#mask1_76_30745)">
<path d="M61.7206 25.8063C62.2563 25.0848 62.7222 24.4579 63.1875 23.8305C63.1572 23.7692 63.1265 23.7078 63.0962 23.6465C62.6267 23.7484 61.9887 23.6938 61.7201 23.9807C60.8927 24.8654 60.2057 25.8806 59.4315 26.8885C59.732 27.1271 60.0017 27.3413 60.2652 27.5507C61.1311 26.7456 61.9152 26.5938 62.7806 27.0346C63.5099 27.4057 63.9157 28.1672 63.8161 29.0332C62.3565 29.0332 60.8906 29.014 59.4258 29.0441C58.9501 29.054 58.7544 28.8955 58.6788 28.4365C58.5212 27.4806 58.3173 26.5324 58.1222 25.5292C57.7476 25.6389 57.4388 25.7299 57.1086 25.8265C57.3084 26.9036 57.4972 27.9172 57.7043 29.0332C57.3319 29.0332 57.0455 29.0026 56.7685 29.0395C56.1566 29.1206 55.9004 28.8814 55.8279 28.265C55.7392 27.5071 55.54 26.7622 55.3762 25.9539C55.0131 26.0579 54.7225 26.141 54.3777 26.2398C54.5441 27.164 54.7027 28.0451 54.8806 29.0332C54.5269 29.0332 54.2619 28.9989 54.0094 29.04C53.3579 29.146 53.0965 28.8731 53.0266 28.2384C52.9577 27.6162 52.7819 27.0055 52.6447 26.3505C52.2603 26.4643 51.9702 26.5496 51.651 26.6437C51.7981 27.4561 51.9337 28.2015 52.0782 28.9984C51.7371 29.0145 51.518 29.0291 51.2983 29.0348C50.0917 29.0665 49.8977 28.9121 49.6515 27.715C49.5054 27.0065 49.3666 26.297 49.2127 25.5287C48.8596 25.6353 48.5721 25.7226 48.2294 25.826C48.3092 26.2939 48.3723 26.7263 48.4584 27.1546C48.846 29.0847 48.8444 29.0748 46.8668 29.0436C46.413 29.0363 46.2549 28.8783 46.185 28.4479C46.029 27.493 45.8173 26.547 45.6148 25.5318C45.2575 25.6368 44.9518 25.7262 44.6143 25.825C44.6639 26.128 44.6972 26.3671 44.7426 26.6037C44.9356 27.6032 45.1516 28.5981 45.3222 29.6014C45.4787 30.5219 45.1203 30.9097 44.1855 30.8193C43.7202 30.774 43.2658 30.6207 42.8203 30.5193C43.1677 31.4638 43.8308 31.9192 44.8663 31.8022C45.92 31.6832 46.4396 31.0677 46.5043 30.064C46.6164 30.0323 46.678 30.0047 46.7422 29.998C47.6332 29.9039 48.5779 30.2043 49.4068 29.6279C49.4637 29.5884 49.6061 29.6773 49.7104 29.6981C50.2055 29.7958 50.7005 29.971 51.1961 29.9736C55.6255 29.9949 60.0544 29.9865 64.4838 29.985C64.717 29.985 64.9497 29.9658 65.379 29.947C65.0133 28.9215 64.7958 27.9598 64.3399 27.1271C63.8359 26.2065 62.862 25.8655 61.7206 25.8063Z" fill="#E61838"/>
</g>
<path d="M68.3078 29.9341H73.9235V23.959H67.1445C67.5399 25.9914 67.9255 27.9714 68.3078 29.9341Z" fill="#E61838"/>
<mask id="mask2_76_30745" style="mask-type:luminance" maskUnits="userSpaceOnUse" x="31" y="25" width="12" height="7">
<path d="M31.25 25.4414H42.4678V31.8236H31.25V25.4414Z" fill="white"/>
</mask>
<g mask="url(#mask2_76_30745)">
<path d="M41.8134 25.4961C41.4341 25.6193 41.1143 25.7232 40.7883 25.8293C40.9417 26.6339 41.0663 27.3513 41.2176 28.0629C41.3256 28.5733 41.251 28.9362 40.6433 29.023C39.8441 29.1363 39.6865 29.0521 39.5556 28.3815C39.4002 27.5857 39.2421 26.7904 39.0736 25.9379C38.7017 26.046 38.3975 26.1349 38.0626 26.2327C38.2369 27.1943 38.397 28.0764 38.5728 29.0484C38.2405 29.0484 37.9953 29.0141 37.7632 29.0552C37.0694 29.1774 36.8284 28.8395 36.7559 28.209C36.688 27.6242 36.5383 27.0488 36.4126 26.4052C36.048 26.5263 35.7449 26.6272 35.471 26.7182C35.4554 26.831 35.4376 26.8767 35.4449 26.9172C35.6134 27.8077 35.7845 28.6971 35.9551 29.5864C36.0594 30.1312 35.941 30.5907 35.3411 30.7253C34.0688 31.0102 32.9921 30.7092 32.6149 29.3312C32.4934 28.8873 32.4026 28.4356 32.2868 27.9392C31.9409 28.0395 31.6321 28.1289 31.3379 28.2136C31.5565 30.6874 32.7652 31.8632 34.9655 31.8117C36.3891 31.7785 36.855 31.413 37.2154 29.9888C37.4345 29.9888 37.674 29.9893 37.9139 29.9882C38.9364 29.9851 39.9599 30.0096 40.9808 29.9706C41.9552 29.9331 42.48 29.3525 42.3554 28.4143C42.2276 27.4547 42.0053 26.5076 41.8134 25.4961Z" fill="#E61838"/>
</g>
<path d="M40.7188 3.73448H44.9739V0.826172H40.7188V3.73448Z" fill="#E61838"/>
<path d="M34.7793 3.72174H39.0199V0.822266H34.7793V3.72174Z" fill="#E61838"/>
<path d="M69.8281 11.1499H73.9597V8.24414H69.8281V11.1499Z" fill="#002E60"/>
<path d="M64.7207 24.0236C65.1156 26.0373 65.5006 28.0001 65.8788 29.9291H66.9654C66.5549 27.8291 66.1574 25.7945 65.7463 23.6914C65.3702 23.813 65.0655 23.9118 64.7207 24.0236Z" fill="#E61838"/>
<path d="M40.4483 18.9091C37.6892 19.2486 35.1728 17.2863 34.8326 14.5371C34.5045 11.7873 36.4733 9.28028 39.2328 8.94085C41.9924 8.60193 44.5084 10.5642 44.8485 13.3134C45.1892 16.0632 43.2199 18.5702 40.4483 18.9091ZM48.3009 12.8534C47.7296 8.19025 43.463 4.87129 38.7826 5.44048C34.1028 6.00967 30.7726 10.2612 31.3438 14.9243C31.5467 16.596 32.2191 18.0905 33.2155 19.2933C33.2948 19.3889 33.3756 19.4835 33.4591 19.5755C33.4711 19.5875 33.4831 19.6 33.4956 19.6119C33.6777 19.915 33.4106 20.0844 33.3496 20.1328C32.6683 20.7352 31.5347 21.6173 30.1377 22.607C28.6692 23.6472 26.9091 24.8063 25.0718 25.886C19.5652 29.1202 9.81641 30.0527 9.81641 30.0527C9.81641 30.0527 14.5327 30.9489 21.8141 29.5438C27.5393 28.4418 32.7418 24.142 34.8326 22.2764C35.0632 22.0706 35.1853 21.962 35.3673 21.8039C35.5739 21.6106 35.744 21.3923 36.0601 21.5258C36.0721 21.5378 36.0966 21.5378 36.1091 21.5498C36.2547 21.6225 36.7529 21.8403 36.7529 21.8403C37.0325 21.9375 37.3121 22.0342 37.5797 22.107C37.5797 22.1189 37.5797 22.1189 37.5917 22.1189C37.7132 22.1434 37.8468 22.1798 37.9683 22.2042C37.9809 22.2042 37.9929 22.2161 38.0049 22.2161C38.1269 22.2401 38.2605 22.2645 38.382 22.2889C38.394 22.2889 38.4185 22.3009 38.4305 22.3009C38.5641 22.3128 38.6856 22.3373 38.8077 22.3492C38.8317 22.3492 38.8562 22.3612 38.8682 22.3612C38.9897 22.3736 39.1113 22.3856 39.2328 22.3976H39.3054C39.4274 22.3976 39.537 22.41 39.658 22.41H39.731C39.8526 22.422 39.9621 22.41 40.0837 22.41H40.1567C40.2657 22.3976 40.3878 22.3976 40.4968 22.3856H40.5824C40.6914 22.3736 40.801 22.3612 40.91 22.3492C40.9465 22.3492 41.0806 22.3248 41.0806 22.3248C45.6633 21.6589 48.8846 17.4682 48.3009 12.8534Z" fill="#E61838"/>
<path d="M50.3278 31.1134C50.3278 31.4206 50.0779 31.6701 49.7691 31.6701C49.4608 31.6701 49.2109 31.4206 49.2109 31.1134C49.2109 30.8061 49.4608 30.5566 49.7691 30.5566C50.0779 30.5566 50.3278 30.8061 50.3278 31.1134Z" fill="#E61838"/>
</svg>
