<svg width="32" height="32" viewBox="0 0 32 32" fill="none" xmlns="http://www.w3.org/2000/svg">
<g clip-path="url(#clip0_76_30634)">
<path d="M17.9133 19.9411H17.4339C17.1343 19.9411 16.8906 19.6971 16.8906 19.3971C16.8906 19.0971 17.1343 18.8531 17.4339 18.8531H17.9133C18.0612 18.8531 18.181 18.7331 18.181 18.5851V14.1651C18.181 13.8651 18.4247 13.6211 18.7243 13.6211C19.024 13.6211 19.2677 13.8651 19.2677 14.1651V18.5811C19.2716 19.3331 18.6604 19.9411 17.9133 19.9411Z" fill="#02508C"/>
<path d="M15.8363 17.3899C15.5367 17.3899 15.293 17.1459 15.293 16.8459V11.3819C15.293 11.0819 15.5367 10.8379 15.8363 10.8379C16.1359 10.8379 16.3796 11.0819 16.3796 11.3819V16.8459C16.3836 17.1459 16.1359 17.3899 15.8363 17.3899Z" fill="#02508C"/>
<path d="M12.0813 13.1301H8.58962C8.28999 13.1301 8.0463 13.3741 8.0463 13.6741C8.0463 13.9741 8.28999 14.2181 8.58962 14.2181H12.0813C12.4488 14.2181 12.7444 14.5181 12.7444 14.8821V15.6301C12.7444 15.9981 12.4448 16.2941 12.0813 16.2941H4.27501V11.2901C4.27501 10.9901 4.03132 10.7461 3.73169 10.7461C3.43207 10.7461 3.18837 10.9901 3.18837 11.2901V18.1981C3.18837 18.5301 2.91671 18.8021 2.58113 18.8021L1.76215 18.8061C1.43057 18.8061 1.15891 18.5341 1.15891 18.2021V15.5741C1.15891 15.2741 0.915212 15.0301 0.615586 15.0301C0.315961 15.0301 0.0722656 15.2741 0.0722656 15.5741V18.2021C0.0722656 19.1381 0.831317 19.8981 1.77014 19.8981L2.58912 19.8941C3.52395 19.8941 4.283 19.1341 4.283 18.1981V17.3861L12.0853 17.3901C13.052 17.3901 13.8391 16.6021 13.8391 15.6341V14.8861C13.8351 13.9181 13.048 13.1301 12.0813 13.1301Z" fill="#02508C"/>
<path d="M11.5463 19.8131C11.9214 19.8131 12.2255 19.5087 12.2255 19.1331C12.2255 18.7576 11.9214 18.4531 11.5463 18.4531C11.1713 18.4531 10.8672 18.7576 10.8672 19.1331C10.8672 19.5087 11.1713 19.8131 11.5463 19.8131Z" fill="#02508C"/>
<path d="M18.7241 12.6608C19.0992 12.6608 19.4032 12.3563 19.4032 11.9808C19.4032 11.6052 19.0992 11.3008 18.7241 11.3008C18.349 11.3008 18.0449 11.6052 18.0449 11.9808C18.0449 12.3563 18.349 12.6608 18.7241 12.6608Z" fill="#02508C"/>
<path d="M15.017 24.0416C15.3921 24.0416 15.6962 23.7372 15.6962 23.3616C15.6962 22.9861 15.3921 22.6816 15.017 22.6816C14.642 22.6816 14.3379 22.9861 14.3379 23.3616C14.3379 23.7372 14.642 24.0416 15.017 24.0416Z" fill="#02508C"/>
<path d="M12.2885 24.0416C12.6636 24.0416 12.9677 23.7372 12.9677 23.3616C12.9677 22.9861 12.6636 22.6816 12.2885 22.6816C11.9134 22.6816 11.6094 22.9861 11.6094 23.3616C11.6094 23.7372 11.9134 24.0416 12.2885 24.0416Z" fill="#02508C"/>
<path d="M4.14264 30.1125H0.551134C0.355378 30.1125 0.175603 30.0085 0.0797226 29.8405C-0.0161575 29.6725 -0.0161575 29.4645 0.0797226 29.2965L3.27573 23.7325H0.615054C0.315428 23.7325 0.0717327 23.4885 0.0717327 23.1885C0.0717327 22.8885 0.315428 22.6445 0.615054 22.6445H4.21855C4.41431 22.6445 4.59408 22.7485 4.68996 22.9165C4.78584 23.0845 4.78584 23.2925 4.68996 23.4605L1.49395 29.0245H4.14264C4.44227 29.0245 4.68597 29.2685 4.68597 29.5685C4.68597 29.8685 4.44227 30.1125 4.14264 30.1125Z" fill="#02508C"/>
<path d="M9.55236 30.141H7.41103C6.46821 30.141 5.70117 29.373 5.70117 28.429V27.813C5.70117 26.869 6.46821 26.101 7.41103 26.101H9.00904V25.541C9.00904 25.221 8.74936 24.961 8.42976 24.961H7.09543C6.7958 24.961 6.55211 24.717 6.55211 24.417C6.55211 24.117 6.7958 23.873 7.09543 23.873H8.42976C9.35261 23.873 10.0997 24.625 10.0997 25.545V29.597C10.0957 29.897 9.85198 30.141 9.55236 30.141ZM7.41103 27.197C7.07146 27.197 6.79181 27.477 6.79181 27.817V28.433C6.79181 28.773 7.07146 29.053 7.41103 29.053H9.00904V27.197H7.41103Z" fill="#02508C"/>
<path d="M11.3968 31.8018H11.2211C10.9214 31.8018 10.6777 31.5578 10.6777 31.2578C10.6777 30.9578 10.9214 30.7138 11.2211 30.7138H11.3968C11.5886 30.7138 11.7404 30.5578 11.7404 30.3698V25.4698C11.7404 25.1698 11.9841 24.9258 12.2837 24.9258C12.5834 24.9258 12.827 25.1698 12.827 25.4698V30.3658C12.831 31.1578 12.1878 31.8018 11.3968 31.8018Z" fill="#02508C"/>
<path d="M18.7531 30.2051H18.3057C17.5546 30.2051 16.9434 29.5931 16.9434 28.8411V23.2491C16.9434 22.9491 17.1871 22.7051 17.4867 22.7051C17.7863 22.7051 18.03 22.9491 18.03 23.2491V28.8411C18.03 28.9931 18.1538 29.1131 18.3017 29.1131H18.7491C19.0487 29.1131 19.2924 29.3571 19.2924 29.6571C19.3004 29.9611 19.0567 30.2051 18.7531 30.2051Z" fill="#02508C"/>
<path d="M15.0179 30.0858C14.7183 30.0858 14.4746 29.8418 14.4746 29.5418V25.4698C14.4746 25.1698 14.7183 24.9258 15.0179 24.9258C15.3176 24.9258 15.5613 25.1698 15.5613 25.4698V29.5418C15.5613 29.8418 15.3176 30.0858 15.0179 30.0858Z" fill="#02508C"/>
<path d="M31.9679 4.82152V4.81752C31.9679 4.78952 31.9639 4.76552 31.9639 4.73752C31.9639 4.73352 31.964 4.72552 31.96 4.72152C31.956 4.69352 31.952 4.66552 31.944 4.64152C31.944 4.63752 31.94 4.63352 31.94 4.62952C31.932 4.60152 31.924 4.57752 31.916 4.54952V4.54552C31.904 4.51752 31.892 4.49352 31.8801 4.46952C31.8761 4.46552 31.8761 4.46152 31.8721 4.45752C31.8601 4.43352 31.8441 4.40952 31.8281 4.38952C31.8241 4.38552 31.8201 4.38152 31.8201 4.37752C31.8041 4.35352 31.7842 4.33352 31.7682 4.31352L31.7642 4.30952C31.7442 4.28952 31.7242 4.26952 31.7043 4.24952C31.7003 4.24552 31.7003 4.24552 31.6963 4.24152C31.6763 4.22152 31.6523 4.20552 31.6284 4.18952C31.6244 4.18952 31.6244 4.18552 31.6244 4.18552C31.6204 4.18552 31.6204 4.18152 31.6164 4.18152C31.5924 4.16552 31.5684 4.15352 31.5405 4.13752C31.5365 4.13752 31.5325 4.13352 31.5285 4.13352C31.5165 4.12952 31.5045 4.12152 31.4965 4.11752L23.7982 0.913516C23.6104 0.833516 23.3987 0.833516 23.2069 0.913516L15.5085 4.11752C15.4965 4.12152 15.4846 4.12952 15.4766 4.13352C15.4726 4.13352 15.4686 4.13752 15.4646 4.13752C15.4406 4.14952 15.4126 4.16552 15.3887 4.18152C15.3847 4.18152 15.3847 4.18552 15.3807 4.18552C15.3767 4.18552 15.3767 4.18952 15.3767 4.18952C15.3527 4.20552 15.3287 4.22152 15.3088 4.24152C15.3048 4.24552 15.3048 4.24552 15.3008 4.24952C15.2808 4.26952 15.2608 4.28552 15.2409 4.30952L15.2369 4.31352C15.2169 4.33352 15.2009 4.35752 15.1849 4.37752C15.1809 4.38152 15.1769 4.38552 15.1769 4.38952C15.161 4.41352 15.145 4.43352 15.133 4.45752C15.129 4.46152 15.129 4.46552 15.125 4.46952C15.113 4.49352 15.101 4.52152 15.089 4.54552V4.54952C15.0771 4.57352 15.0691 4.60152 15.0651 4.62952C15.0651 4.63352 15.0611 4.63752 15.0611 4.64152C15.0531 4.66952 15.0491 4.69752 15.0451 4.72152C15.0451 4.72552 15.0451 4.73352 15.0411 4.73752C15.0371 4.76552 15.0371 4.78952 15.0371 4.81752V4.82152C15.0371 4.82152 15.0371 4.82152 15.0371 4.82552V8.82152C15.0371 9.24552 15.3807 9.59352 15.8081 9.59352C16.2356 9.59352 16.5792 9.24952 16.5792 8.82152V6.00552L22.7315 8.71352V17.5895L21.493 16.9735C21.1135 16.7855 20.6501 16.9415 20.4623 17.3215C20.2746 17.7015 20.4304 18.1655 20.8099 18.3535L23.163 19.5215C23.1709 19.5255 23.1749 19.5255 23.1829 19.5295C23.1949 19.5335 23.2069 19.5375 23.2189 19.5455C23.2389 19.5535 23.2588 19.5615 23.2788 19.5655C23.2908 19.5695 23.3028 19.5735 23.3148 19.5775C23.3347 19.5815 23.3587 19.5895 23.3787 19.5895C23.3907 19.5895 23.3987 19.5935 23.4106 19.5935C23.4426 19.5975 23.4746 19.6015 23.5065 19.6015C23.5385 19.6015 23.5704 19.5975 23.6024 19.5935C23.6144 19.5935 23.6224 19.5895 23.6344 19.5895C23.6583 19.5855 23.6783 19.5815 23.7023 19.5775C23.7143 19.5735 23.7262 19.5695 23.7382 19.5655C23.7582 19.5575 23.7782 19.5535 23.7982 19.5455C23.8101 19.5415 23.8221 19.5375 23.8301 19.5295C23.8381 19.5255 23.8421 19.5255 23.8501 19.5215L31.5485 15.7015C31.8121 15.5695 31.9759 15.3055 31.9759 15.0095L31.9679 4.82152C31.9679 4.82552 31.9679 4.82552 31.9679 4.82152ZM23.5025 2.45752L29.2394 4.84552L23.5025 7.36952L17.7657 4.84552L23.5025 2.45752ZM24.2696 17.5895V8.71352L30.4299 6.00552V14.5295L24.2696 17.5895Z" fill="#FED10A"/>
</g>
<defs>
<clipPath id="clip0_76_30634">
<rect width="32" height="31" fill="white" transform="translate(0 0.822266)"/>
</clipPath>
</defs>
</svg>
