<svg width="50" height="22" viewBox="0 0 50 22" fill="none" xmlns="http://www.w3.org/2000/svg">
<path fill-rule="evenodd" clip-rule="evenodd" d="M9.13601 3.22288C8.55001 3.94547 7.6124 4.5154 6.6748 4.43398C6.5576 3.45696 7.01663 2.41888 7.5538 1.77771C8.13981 1.03477 9.16531 0.505553 9.99549 0.464844C10.0932 1.48257 9.71225 2.47994 9.13601 3.22288ZM9.98563 4.62729C9.15961 4.57775 8.40591 4.88615 7.79713 5.13525C7.40536 5.29555 7.07361 5.4313 6.82121 5.4313C6.53797 5.4313 6.19252 5.28829 5.80466 5.12773C5.29643 4.91734 4.71538 4.67681 4.10606 4.68836C2.70942 4.70871 1.41045 5.53307 0.697475 6.84594C-0.767533 9.47167 0.316573 13.3594 1.73275 15.4966C2.42619 16.555 3.25636 17.7153 4.35023 17.6745C4.83147 17.6556 5.17764 17.5026 5.5359 17.3441C5.94835 17.1618 6.37682 16.9723 7.04585 16.9723C7.69167 16.9723 8.1014 17.1568 8.49472 17.334C8.8687 17.5024 9.22784 17.6641 9.76099 17.6542C10.8939 17.6338 11.6069 16.5958 12.3003 15.5373C13.0487 14.4013 13.3775 13.2927 13.4274 13.1244L13.4333 13.105C13.4321 13.1037 13.4228 13.0993 13.4065 13.0915L13.4065 13.0915C13.1564 12.9722 11.2443 12.0601 11.226 9.61415C11.2076 7.56117 12.7426 6.521 12.9842 6.35726C12.9989 6.34729 13.0088 6.34058 13.0133 6.33707C12.0366 4.83084 10.513 4.668 9.98563 4.62729ZM17.8284 17.5423V1.6759H23.5419C26.4915 1.6759 28.5523 3.79277 28.5523 6.88666C28.5523 9.98055 26.4524 12.1178 23.4638 12.1178H20.1919V17.5423H17.8284ZM20.1917 3.75217H22.9166C24.9676 3.75217 26.1396 4.89203 26.1396 6.89695C26.1396 8.90187 24.9676 10.0519 22.9069 10.0519H20.1917V3.75217ZM36.356 15.6391C35.7309 16.8807 34.3538 17.6643 32.8693 17.6643C30.6717 17.6643 29.1384 16.3006 29.1384 14.2448C29.1384 12.2093 30.6229 11.0389 33.3674 10.8659L36.3169 10.6827V9.8075C36.3169 8.51498 35.5063 7.81275 34.0608 7.81275C32.8693 7.81275 32 8.45392 31.8242 9.43094H29.6951C29.7634 7.37513 31.6191 5.87907 34.1292 5.87907C36.8345 5.87907 38.5926 7.35478 38.5926 9.64466V17.5422H36.4048V15.6391H36.356ZM33.504 15.7817C32.2441 15.7817 31.4432 15.1507 31.4432 14.1838C31.4432 13.1865 32.2148 12.6064 33.6895 12.5148L36.3168 12.3417V13.2373C36.3168 14.7232 35.1057 15.7817 33.504 15.7817ZM45.8491 18.1631C44.9018 20.9415 43.8177 21.8574 41.5127 21.8574C41.3369 21.8574 40.7509 21.8371 40.6142 21.7964V19.8932C40.7607 19.9136 41.122 19.9339 41.3076 19.9339C42.3526 19.9339 42.9387 19.476 43.3 18.2852L43.5149 17.583L39.5105 6.03179H41.9815L44.765 15.405H44.8139L47.5974 6.03179H50L45.8491 18.1631Z" fill="black"/>
</svg>
