<svg width="50" height="22" viewBox="0 0 50 22" fill="none" xmlns="http://www.w3.org/2000/svg">
<path fill-rule="evenodd" clip-rule="evenodd" d="M23.0593 16.972V10.9301H26.1776C27.4555 10.9301 28.534 10.5019 29.4132 9.65749L29.6242 9.44341C31.2303 7.69506 31.1248 4.97143 29.4132 3.35391C28.5574 2.49757 27.3851 2.03373 26.1776 2.05751H21.1719V16.972H23.0593ZM23.0595 9.09836V3.88899H26.2253C26.9053 3.88899 27.5502 4.15064 28.0309 4.62639C29.051 5.62544 29.0745 7.29054 28.0896 8.32528C27.6088 8.83671 26.9288 9.12215 26.2253 9.09836H23.0595ZM38.4283 7.56413C37.6194 6.81484 36.5175 6.43425 35.1224 6.43425C33.3288 6.43425 31.9806 7.10029 31.0897 8.42047L32.7544 9.479C33.364 8.57509 34.1963 8.12313 35.2514 8.12313C35.9196 8.12313 36.5644 8.3729 37.0685 8.82485C37.5608 9.25302 37.8422 9.87148 37.8422 10.5256V10.9657C37.1154 10.5613 36.2009 10.3472 35.0755 10.3472C33.7625 10.3472 32.7075 10.6565 31.922 11.2868C31.1366 11.9172 30.738 12.7497 30.738 13.8083C30.7145 14.7716 31.1248 15.6874 31.8517 16.3059C32.5902 16.9719 33.5281 17.305 34.6301 17.305C35.9313 17.305 36.963 16.7222 37.7484 15.5566H37.8305V16.9719H39.6358V10.6802C39.6358 9.36006 39.2372 8.31343 38.4283 7.56413ZM33.3057 15.0928C32.9187 14.8074 32.6842 14.3435 32.6842 13.844C32.6842 13.285 32.9422 12.8211 33.4464 12.4524C33.9623 12.0837 34.6071 11.8934 35.3693 11.8934C36.4245 11.8815 37.2453 12.1194 37.8315 12.5952C37.8315 13.4039 37.5149 14.1056 36.8935 14.7003C36.3307 15.2712 35.5686 15.5923 34.7713 15.5923C34.2437 15.6042 33.7278 15.4258 33.3057 15.0928ZM43.6921 21.4558L49.9991 6.76725H47.9475L45.0285 14.0937H44.9933L42.0039 6.76725H39.9524L44.0906 16.3178L41.746 21.4558H43.6921Z" fill="#3C4043"/>
<path d="M16.544 9.62122C16.544 9.03844 16.4971 8.45566 16.4034 7.88477H8.44336V11.1793H13.0036C12.8161 12.2378 12.2065 13.1893 11.3155 13.784V15.9248H14.0353C15.6296 14.4381 16.544 12.2378 16.544 9.62122Z" fill="#4285F4"/>
<path d="M8.44421 17.9943C10.7185 17.9943 12.6411 17.2331 14.0361 15.9248L11.3164 13.784C10.5544 14.3073 9.58135 14.6047 8.44421 14.6047C6.24027 14.6047 4.37629 13.0942 3.70807 11.0723H0.90625V13.2845C2.33647 16.1746 5.25552 17.9943 8.44421 17.9943Z" fill="#34A853"/>
<path d="M3.70802 11.0728C3.35627 10.0142 3.35627 8.86057 3.70802 7.79015V5.58984H0.905754C-0.301918 8.00424 -0.301918 10.8587 0.905754 13.2731L3.70802 11.0728Z" fill="#FBBC04"/>
<path d="M8.44421 4.25737C9.65169 4.23358 10.8123 4.69743 11.6798 5.54187L14.0947 3.0918C12.559 1.64079 10.5426 0.843918 8.44421 0.867705C5.25552 0.867705 2.33647 2.69931 0.90625 5.58945L3.70807 7.80165C4.37629 5.76785 6.24026 4.25737 8.44421 4.25737Z" fill="#EA4335"/>
</svg>
