<svg width="100" height="34" viewBox="0 0 100 34" fill="none" xmlns="http://www.w3.org/2000/svg">
<path d="M42.2702 19.7188H0.0117188V33.7871H42.2702V19.7188Z" fill="#84B740"/>
<path d="M42.2702 0.521484H0.0117188V14.6024H42.2702V0.521484Z" fill="#259BD6"/>
<path d="M84.5287 30.9276L84.3405 30.9652C83.6881 31.0906 83.4497 31.1408 82.9729 31.1408C81.8687 31.1408 80.5638 30.5765 80.5638 27.9183C80.5638 26.5516 80.7897 24.7335 82.8474 24.7335H82.86C83.2113 24.7586 83.6128 24.7962 84.3656 25.0219L84.5287 25.0721V30.9276ZM84.8675 17.6742L84.5287 17.7369V22.6521L84.2276 22.5643L84.1398 22.5392C83.801 22.4389 83.0231 22.2132 82.2702 22.2132C78.1548 22.2132 77.2891 25.3228 77.2891 27.9309C77.2891 31.5044 79.2966 33.5607 82.7972 33.5607C84.2778 33.5607 85.3694 33.4103 86.4735 33.0467C87.4898 32.7207 87.8537 32.2567 87.8537 31.2662V17.1602C86.875 17.3357 85.8587 17.5112 84.8675 17.6742Z" fill="#27292D"/>
<path d="M96.7629 31.0152L96.5873 31.0654L95.9599 31.2284C95.3702 31.3789 94.8432 31.4666 94.4417 31.4666C93.4756 31.4666 92.8984 30.9902 92.8984 30.1751C92.8984 29.6485 93.1368 28.7583 94.7177 28.7583H96.7629V31.0152ZM95.32 22.1504C94.0527 22.1504 92.7479 22.3761 91.1293 22.8776L90.0753 23.1911L90.4267 25.5734L91.4555 25.2349C92.5346 24.8838 93.8771 24.6581 94.8809 24.6581C95.3325 24.6581 96.7127 24.6581 96.7127 26.1502V26.8022H94.793C91.2924 26.8022 89.6738 27.9182 89.6738 30.3131C89.6738 32.3569 91.1669 33.5857 93.6763 33.5857C94.4543 33.5857 95.5333 33.4352 96.4618 33.2095L96.512 33.197L96.5622 33.2095L96.8758 33.2597C97.8545 33.4352 98.8708 33.6107 99.862 33.7988V25.9747C99.862 23.4419 98.3313 22.1504 95.32 22.1504Z" fill="#27292D"/>
<path d="M72.384 31.0152L72.2083 31.0654L71.581 31.2284C70.9913 31.3789 70.4769 31.4666 70.0628 31.4666C69.0967 31.4666 68.5195 30.9902 68.5195 30.1751C68.5195 29.6485 68.7579 28.7583 70.3263 28.7583H72.3715V31.0152H72.384ZM70.9536 22.1504C69.6738 22.1504 68.3815 22.3761 66.7629 22.8776L65.709 23.1911L66.0603 25.5734L67.0891 25.2349C68.1682 24.8838 69.5107 24.6581 70.5145 24.6581C70.9662 24.6581 72.3464 24.6581 72.3464 26.1502V26.8022H70.4267C66.926 26.8022 65.2949 27.9182 65.2949 30.3131C65.2949 32.3569 66.788 33.5857 69.31 33.5857C70.0879 33.5857 71.1669 33.4352 72.0954 33.2095L72.1456 33.197L72.1958 33.2095L72.4969 33.2597C73.4881 33.4352 74.4919 33.6107 75.4831 33.8114V25.9872C75.4957 23.4293 73.9649 22.1504 70.9536 22.1504Z" fill="#27292D"/>
<path d="M59.1715 22.1766C57.578 22.1766 56.2606 22.7032 55.7712 22.9289L55.6458 22.9916L55.5328 22.9038C54.8553 22.4148 53.8641 22.1641 52.4839 22.1641C51.2668 22.1641 50.1251 22.3396 48.8829 22.7032C47.8164 23.0292 47.4023 23.5433 47.4023 24.5088V33.4489H50.7399V25.1859L50.903 25.1357C51.5805 24.91 51.982 24.8724 52.371 24.8724C53.3371 24.8724 53.8264 25.3865 53.8264 26.3896V33.4614H57.1138V26.2517C57.1138 25.8254 57.0259 25.5746 57.0134 25.5244L56.9005 25.3113L57.1263 25.211C57.6282 24.9853 58.1803 24.8724 58.7574 24.8724C59.4224 24.8724 60.2129 25.1357 60.2129 26.3896V33.4614H63.4877V26.0636C63.4877 23.443 62.0824 22.1766 59.1715 22.1766Z" fill="#27292D"/>
<path d="M94.3037 9.6998C93.8144 9.6998 92.9988 9.64964 92.3589 9.52425L92.1707 9.48664V4.65925C92.1707 4.25801 92.0954 4.00724 92.0829 3.96962L91.9825 3.769L92.1958 3.68123C92.246 3.65615 92.2962 3.64362 92.3589 3.61854L92.3966 3.59346C92.4718 3.56838 92.5471 3.54331 92.6224 3.51823C92.66 3.50569 92.6851 3.49315 92.7102 3.49315C93.4505 3.29253 94.128 3.31761 94.4292 3.29253H94.4417C96.4869 3.29253 96.7253 5.11064 96.7253 6.47735C96.7127 9.13555 95.3953 9.6998 94.3037 9.6998ZM94.2912 0.521484C94.2661 0.521484 94.2284 0.521484 94.2033 0.521484C92.2836 0.521484 90.3137 1.04811 89.6111 2.07628C89.2347 2.57783 89.0214 3.20476 89.0089 3.94454V8.9224C89.0089 9.34871 88.921 9.51171 88.9085 9.54933L88.7956 9.76249H82.7353V6.30181H82.7228C82.6475 2.65306 80.4894 0.646871 77.3652 0.646871H77.0013H74.3163C74.1908 1.53712 74.0904 2.16405 73.9649 3.0543H77.0013C78.5948 3.0543 79.4354 4.40847 79.4354 6.48989V9.97565L79.2222 9.8628C79.1845 9.85026 78.921 9.76249 78.507 9.76249H73.2623C73.1619 10.427 73.0365 11.2922 72.8984 12.1574H89.0214C89.5735 12.0445 90.2134 11.9442 90.7654 11.8564C91.581 12.2577 93.0992 12.4708 94.1406 12.4708C97.6412 12.4708 99.9122 10.1261 99.9122 6.51497C99.8997 2.94145 97.704 0.596716 94.2912 0.521484Z" fill="#27292D"/>
<path d="M66.0222 13.6251H66.1727C69.6734 13.6251 71.3045 12.4716 71.3045 9.62531C71.3045 7.5815 69.8114 5.95148 67.302 5.95148H64.0774C63.1113 5.95148 62.5341 5.39977 62.5341 4.47191C62.5341 3.84498 62.7725 3.06758 64.3534 3.06758H71.4049C71.5554 2.15226 71.6307 1.57548 71.7687 0.660156H64.4412C61.0284 0.660156 59.3095 2.08956 59.3095 4.47191C59.3095 6.82918 60.8026 8.05797 63.312 8.05797H66.5366C67.5027 8.05797 68.0799 8.82283 68.0799 9.62531C68.0799 10.1519 67.8415 11.2428 66.2731 11.2428H65.7336L55.4074 11.2177H53.5253C51.9318 11.2177 50.8151 10.3149 50.8151 8.22098V6.77903C50.8151 4.5973 51.6809 3.24312 53.5253 3.24312H56.5868C56.7248 2.31526 56.8126 1.72594 56.9381 0.848236H53.1238H52.7599C49.6357 0.848236 47.4776 2.9422 47.4023 6.59095V6.72887V8.22098C47.4776 11.8697 49.6357 13.6126 52.7599 13.6126H53.1238H55.8089L61.4049 13.6251H64.7424H66.0222Z" fill="#27292D"/>
</svg>
