<svg width="33" height="26" viewBox="0 0 33 26" fill="none" xmlns="http://www.w3.org/2000/svg">
<path fill-rule="evenodd" clip-rule="evenodd" d="M9.32015 23.1464V24.4953V25.8443H8.7314V25.5167C8.54467 25.7596 8.26132 25.9121 7.87617 25.9121C7.1169 25.9121 6.52168 25.3197 6.52168 24.4953C6.52168 23.6717 7.1169 23.0786 7.87617 23.0786C8.26132 23.0786 8.54467 23.2311 8.7314 23.474V23.1464H9.32015ZM7.95034 23.6316C7.44071 23.6316 7.12883 24.0212 7.12883 24.4954C7.12883 24.9695 7.44071 25.3591 7.95034 25.3591C8.43729 25.3591 8.76602 24.9863 8.76602 24.4954C8.76602 24.0044 8.43729 23.6316 7.95034 23.6316ZM29.2156 24.4954C29.2156 24.0212 29.5275 23.6316 30.0371 23.6316C30.5247 23.6316 30.8528 24.0044 30.8528 24.4954C30.8528 24.9863 30.5247 25.3591 30.0371 25.3591C29.5275 25.3591 29.2156 24.9695 29.2156 24.4954ZM31.4089 22.063V24.4953V25.8443H30.8195V25.5167C30.6328 25.7596 30.3494 25.9121 29.9643 25.9121C29.205 25.9121 28.6098 25.3197 28.6098 24.4953C28.6098 23.6717 29.205 23.0786 29.9643 23.0786C30.3494 23.0786 30.6328 23.2311 30.8195 23.474V22.063H31.4089ZM16.6283 23.6038C17.0077 23.6038 17.2515 23.8409 17.3137 24.2582L15.9086 24.2582C15.9715 23.8687 16.2088 23.6038 16.6283 23.6038ZM15.2912 24.4953C15.2912 23.6542 15.8462 23.0786 16.6398 23.0786C17.3985 23.0786 17.9198 23.6542 17.9256 24.4953C17.9256 24.5742 17.9198 24.6478 17.9139 24.7208L15.9033 24.7208C15.9882 25.2066 16.3338 25.3817 16.7131 25.3817C16.9848 25.3817 17.274 25.2796 17.5009 25.0994L17.7894 25.5342C17.4607 25.8107 17.0872 25.9121 16.6794 25.9121C15.8689 25.9121 15.2912 25.3533 15.2912 24.4953ZM23.7487 24.4954C23.7487 24.0212 24.0606 23.6316 24.5702 23.6316C25.0572 23.6316 25.3859 24.0044 25.3859 24.4954C25.3859 24.9863 25.0572 25.3591 24.5702 25.3591C24.0606 25.3591 23.7487 24.9695 23.7487 24.4954ZM25.9413 23.1464V24.4953V25.8443H25.3526V25.5167C25.1652 25.7596 24.8825 25.9121 24.4973 25.9121C23.7381 25.9121 23.1429 25.3197 23.1429 24.4953C23.1429 23.6717 23.7381 23.0786 24.4973 23.0786C24.8825 23.0786 25.1652 23.2311 25.3526 23.474V23.1464H25.9413ZM20.4242 24.4953C20.4242 25.3139 20.9961 25.9121 21.8688 25.9121C22.2767 25.9121 22.5484 25.8217 22.8427 25.5904L22.56 25.1162C22.3389 25.2745 22.1068 25.3591 21.8513 25.3591C21.3812 25.3533 21.0357 25.0148 21.0357 24.4953C21.0357 23.9759 21.3812 23.6374 21.8513 23.6316C22.1068 23.6316 22.3389 23.7162 22.56 23.8745L22.8427 23.4003C22.5484 23.169 22.2767 23.0786 21.8688 23.0786C20.9961 23.0786 20.4242 23.6768 20.4242 24.4953ZM27.301 23.4735C27.454 23.2364 27.6751 23.0781 28.0149 23.0781C28.1342 23.0781 28.304 23.1007 28.4344 23.1518L28.2528 23.7048C28.1283 23.6537 28.0038 23.6369 27.8845 23.6369C27.4994 23.6369 27.3068 23.885 27.3068 24.3314V25.8438H26.7174V23.1459H27.301V23.4735ZM12.232 23.3609C11.9486 23.1748 11.5583 23.0786 11.1278 23.0786C10.4418 23.0786 10.0002 23.4061 10.0002 23.9423C10.0002 24.3823 10.3289 24.6536 10.9345 24.7383L11.2127 24.7777C11.5356 24.8229 11.688 24.9075 11.688 25.06C11.688 25.2687 11.4727 25.3875 11.0707 25.3875C10.6629 25.3875 10.3685 25.2577 10.1701 25.1052L9.89258 25.562C10.2155 25.7991 10.6233 25.9121 11.0649 25.9121C11.8468 25.9121 12.3001 25.5452 12.3001 25.0316C12.3001 24.5574 11.9434 24.3093 11.3541 24.2247L11.0765 24.1846C10.8217 24.151 10.6175 24.1006 10.6175 23.9197C10.6175 23.722 10.8101 23.6038 11.133 23.6038C11.4785 23.6038 11.8131 23.7337 11.9772 23.8351L12.232 23.3609ZM19.1154 23.4735C19.2678 23.2364 19.4889 23.0781 19.8287 23.0781C19.948 23.0781 20.1178 23.1007 20.2482 23.1518L20.0666 23.7048C19.9421 23.6537 19.8176 23.6369 19.6983 23.6369C19.3132 23.6369 19.1206 23.885 19.1206 24.3314V25.8438H18.5319V23.1459H19.1154V23.4735ZM14.8049 23.1464H13.842V22.3279H13.2468V23.1464H12.6976V23.6826H13.2468V24.9133C13.2468 25.5393 13.4906 25.9121 14.1869 25.9121C14.4424 25.9121 14.7368 25.8333 14.9235 25.7034L14.7536 25.2008C14.5779 25.3023 14.3853 25.3533 14.2323 25.3533C13.938 25.3533 13.842 25.1724 13.842 24.9017V23.6826H14.8049V23.1464ZM6.00134 24.1505V25.8438H5.40612V24.3424C5.40612 23.885 5.21354 23.6311 4.81154 23.6311C4.42056 23.6311 4.14888 23.8798 4.14888 24.3482V25.8438H3.55366V24.3424C3.55366 23.885 3.3559 23.6311 2.96491 23.6311C2.56226 23.6311 2.30161 23.8798 2.30161 24.3482V25.8438H1.70703L1.70703 23.1459H2.29642V23.4786C2.51752 23.1627 2.80022 23.0781 3.08941 23.0781C3.50308 23.0781 3.79745 23.259 3.98419 23.5581C4.23382 23.1795 4.59044 23.0723 4.93603 23.0781C5.5935 23.0839 6.00134 23.5129 6.00134 24.1505Z" fill="#231F20"/>
<path d="M20.9623 18.5618H12.0391V2.58398H20.9623V18.5618Z" fill="#FF5F00"/>
<path d="M12.6048 10.5748C12.6048 7.33364 14.1278 4.44649 16.4997 2.58591C14.7652 1.22535 12.5762 0.413282 10.1973 0.413282C4.56534 0.413282 0 4.96268 0 10.5748C0 16.1869 4.56534 20.7363 10.1973 20.7363C12.5762 20.7363 14.7652 19.9243 16.4997 18.5637C14.1278 16.7031 12.6048 13.816 12.6048 10.5748Z" fill="#EB001B"/>
<path d="M33.0003 10.5748C33.0003 16.1869 28.435 20.7363 22.803 20.7363C20.4241 20.7363 18.2351 19.9243 16.5 18.5637C18.8725 16.7031 20.3955 13.816 20.3955 10.5748C20.3955 7.33364 18.8725 4.44649 16.5 2.58591C18.2351 1.22535 20.4241 0.413282 22.803 0.413282C28.435 0.413282 33.0003 4.96268 33.0003 10.5748Z" fill="#F79E1B"/>
</svg>
