<svg width="100" height="30" viewBox="0 0 100 30" fill="none" xmlns="http://www.w3.org/2000/svg">
<path d="M64.8574 22.1755V6.64442H67.4912V7.88975C68.2928 6.88775 69.481 6.34375 70.9552 6.34375C73.9899 6.34375 76.1656 8.76286 76.1656 12.2269C76.1656 15.6909 73.9756 18.1531 70.9552 18.1531C69.4665 18.1531 68.2928 17.5804 67.4912 16.5784V22.1753L64.8574 22.1755ZM67.4914 10.7957V13.6586C68.0496 14.8182 69.0516 15.6626 70.4974 15.6626C72.2439 15.6626 73.4176 14.36 73.4176 12.2129C73.4176 10.0944 72.2439 8.80597 70.4974 8.80597C69.0516 8.82019 68.0496 9.60753 67.4914 10.7957Z" fill="#02AA7C"/>
<path d="M77.8691 14.6326C77.8691 12.7431 79.0429 11.4262 80.9896 11.1829L85.47 10.6102V10.052C85.47 9.3793 85.1265 9.0213 84.4967 9.0213H78.8711V6.63086H84.5969C86.8729 6.63086 88.1183 7.7473 88.1183 9.72286V17.8104H85.4558V16.4506C84.6829 17.5386 83.4089 18.154 81.7627 18.154C79.4438 18.154 77.8691 16.7369 77.8691 14.6326ZM82.4067 16.0066C83.7523 16.0066 84.9976 15.248 85.4556 14.1315V12.7286L82.0345 13.2011C81.0898 13.33 80.56 13.8309 80.56 14.6469C80.5602 15.52 81.2329 16.0066 82.4067 16.0066Z" fill="#02AA7C"/>
<path d="M90.038 19.784H91.9562C92.6862 19.784 93.0156 19.4833 93.2589 18.7962L93.6024 17.8085L89.5371 6.62891H92.2856L94.8191 14.416H94.8764L97.2956 6.62891H100.001L95.5491 19.4689C94.948 21.2296 94.1462 22.1742 92.1853 22.1742H90.0382L90.038 19.784Z" fill="#02AA7C"/>
<path d="M9.66222 29.8623C12.7256 29.8623 15.2449 28.9032 16.9053 27.3C18.1507 26.0689 18.8807 24.4085 18.8807 22.4905C18.8807 20.7585 18.2364 19.1983 17.0484 18.01C15.8604 16.8218 14.1569 15.9487 12.0098 15.5336L8.48844 14.8465C7.02844 14.5745 6.19822 13.8445 6.19822 12.8283C6.19822 11.4969 7.48644 10.5809 9.54778 10.5809C10.836 10.5809 11.9382 10.996 12.6682 11.726C13.1262 12.2272 13.4411 12.8712 13.5413 13.6012L18.6229 12.456C18.4798 10.996 17.7927 9.7076 16.7478 8.64849C15.0731 7.00227 12.5107 5.95738 9.49045 5.95738C6.69911 5.95738 4.366 6.8736 2.74844 8.3336C1.37422 9.62182 0.601334 11.3538 0.601334 13.2863C0.601334 14.9754 1.14533 16.4067 2.24756 17.4947C3.34978 18.5969 4.95289 19.4129 7.05711 19.928L10.5356 20.7583C12.282 21.1734 13.0549 21.8176 13.0549 22.9627C13.0549 24.3798 11.7667 25.21 9.66245 25.21C8.14511 25.21 6.914 24.7089 6.14111 23.8787C5.59711 23.3347 5.268 22.5905 5.22489 21.7745L0 22.9198C0.143111 24.48 0.873111 25.8543 1.97533 26.9565C3.70733 28.7743 6.51311 29.8623 9.66222 29.8623ZM48.3396 29.8623C51.732 29.8623 54.3373 28.6312 56.1264 26.8849C57.5436 25.5107 58.4167 23.9076 58.8749 22.2614L53.5213 20.472C53.2922 21.3023 52.8342 22.1754 52.1042 22.8483C51.2311 23.6785 50.0429 24.2654 48.3396 24.2654C46.7793 24.2654 45.3193 23.6643 44.26 22.6192C43.2007 21.5169 42.5567 19.9138 42.5567 17.8954C42.5567 15.834 43.2009 14.2738 44.26 13.1716C45.3049 12.1123 46.7364 11.5685 48.2967 11.5685C49.9429 11.5685 51.088 12.1125 51.9182 12.9427C52.6053 13.6298 53.0204 14.5029 53.2924 15.376L58.7462 13.5438C58.3311 11.9407 57.458 10.3374 56.184 9.00627C54.3518 7.21694 51.6893 5.94294 48.168 5.94294C44.9187 5.94294 41.9842 7.17405 39.88 9.29249C37.7758 11.4396 36.4876 14.4314 36.4876 17.9098C36.4876 21.3883 37.8189 24.3656 39.966 26.5272C42.0556 28.6312 45.0329 29.8623 48.3396 29.8623ZM29.8311 29.8623C32.2073 29.8623 33.9107 29.1323 34.6407 28.488V23.5354C34.0824 23.9505 32.9944 24.4516 31.5631 24.4516C30.5469 24.4516 29.8167 24.2225 29.2729 23.7216C28.8149 23.2636 28.5858 22.4763 28.5858 21.4314V0.460938H22.5309V6.64471H34.6264V12.5136H22.5309V22.92C22.5309 25.0243 23.1751 26.7276 24.3202 27.9158C25.6084 29.1752 27.4978 29.8623 29.8311 29.8623Z" fill="#502C84"/>
</svg>
