<svg width="100" height="31" viewBox="0 0 100 31" fill="none" xmlns="http://www.w3.org/2000/svg">
<g clip-path="url(#clip0_76_30625)">
<path d="M87.8621 6.30543L81.7552 29.5115V29.5879H86.488L92.5949 6.38177H87.8621V6.30543ZM12.7476 19.4352C12.0605 19.8169 11.2208 19.9696 10.4575 19.9696C8.77809 19.9696 7.78572 19.6642 7.70939 18.2902V18.2138C7.70939 18.1375 7.70939 18.1375 7.70939 18.0612V14.0917V13.6337V10.8093V9.58787V9.12986V6.38177L3.51091 6.91612C6.33534 6.38177 8.01473 4.09169 8.01473 1.87795V0.503906H3.28191V6.99246L2.97656 7.06879V19.0535C3.12923 22.4123 5.34297 24.397 9.0071 24.397C10.3048 24.397 11.7552 24.0917 12.8239 23.6337L12.7476 19.4352Z" fill="#292929"/>
<path d="M13.511 5.39005L0.228516 7.45111V10.8099L13.511 8.74882V5.39005ZM13.511 10.3519L0.228516 12.4129V15.6191L13.511 13.558V10.3519ZM28.4728 11.8786C28.2438 8.13813 25.9537 5.9244 22.1369 5.9244C19.9232 5.9244 18.1674 6.76409 16.8697 8.36714C15.6484 9.9702 14.9613 12.3366 14.9613 15.161C14.9613 17.9855 15.572 20.3519 16.8697 21.9549C18.0911 23.558 19.9232 24.3977 22.1369 24.3977C25.9537 24.3977 28.3201 22.1839 28.4728 18.3671V24.016H33.2056V6.30608L28.4728 7.06944V11.8786ZM28.7018 15.161C28.7018 18.5198 26.9461 20.6572 24.2743 20.6572C21.5262 20.6572 19.8468 18.5962 19.8468 15.161C19.8468 11.7259 21.5262 9.66486 24.2743 9.66486C25.6484 9.66486 26.7934 10.1992 27.5568 11.1916C28.3201 12.1839 28.7018 13.558 28.7018 15.161ZM47.0224 5.9244C43.2056 5.9244 40.8392 8.13813 40.6865 11.8786V1.11523L35.9537 1.87859V24.0923H40.6865V18.4435C40.8392 22.1839 43.2056 24.474 47.0224 24.474C51.5262 24.474 54.198 21.0389 54.198 15.2374C54.198 9.43585 51.5262 5.9244 47.0224 5.9244ZM44.885 20.6572C42.2132 20.6572 40.4575 18.5198 40.4575 15.161C40.4575 13.558 40.8392 12.1839 41.6026 11.1916C42.3659 10.1992 43.511 9.66486 44.885 9.66486C47.6331 9.66486 49.3125 11.7259 49.3125 15.161C49.3125 18.5962 47.6331 20.6572 44.885 20.6572ZM67.0987 5.9244C63.2819 5.9244 60.9155 8.13813 60.7629 11.8786V1.11523L56.03 1.87859V24.0923H60.7629V18.4435C60.9155 22.1839 63.2819 24.474 67.0987 24.474C71.6026 24.474 74.2743 21.0389 74.2743 15.2374C74.2743 9.43585 71.5262 5.9244 67.0987 5.9244ZM64.9613 20.6572C62.2896 20.6572 60.5339 18.5198 60.5339 15.161C60.5339 13.558 60.9155 12.1839 61.6789 11.1916C62.4423 10.1992 63.5873 9.66486 64.9613 9.66486C67.7094 9.66486 69.3888 11.7259 69.3888 15.161C69.3888 18.5962 67.7094 20.6572 64.9613 20.6572ZM74.2743 6.30608H79.3125L83.4346 24.0923H78.9308C78.8545 24.016 74.2743 6.30608 74.2743 6.30608ZM96.4881 8.13814V6.68776H95.8774V6.38241H97.4041V6.68776H96.7934V8.13814H96.4881ZM97.5568 8.13814V6.38241H98.1674L98.4728 7.2221C98.5491 7.45111 98.5491 7.52745 98.6255 7.60378C98.6255 7.52745 98.7018 7.45111 98.7781 7.2221L99.0835 6.38241H99.6942V8.13814H99.2361V6.76409L98.7781 8.13814H98.4728L98.0148 6.76409V8.13814H97.5568Z" fill="#292929"/>
</g>
<defs>
<clipPath id="clip0_76_30625">
<rect width="100" height="29.771" fill="white" transform="translate(0 0.275391)"/>
</clipPath>
</defs>
</svg>
