<svg width="50" height="18" viewBox="0 0 50 18" fill="none" xmlns="http://www.w3.org/2000/svg">
<path fill-rule="evenodd" clip-rule="evenodd" d="M12.5005 17.2461H8.17334L4.92848 4.5027C4.77446 3.9165 4.44744 3.39827 3.96641 3.15402C2.76594 2.54022 1.4431 2.05172 0 1.80534V1.31472H6.97076C7.93282 1.31472 8.65437 2.05172 8.77463 2.90765L10.4582 12.0999L14.7833 1.31472H18.9902L12.5005 17.2461ZM21.3954 17.2461H17.3088L20.6739 1.31472H24.7605L21.3954 17.2461ZM30.0477 5.72817C30.1679 4.87012 30.8895 4.37949 31.7313 4.37949C33.0541 4.25631 34.4951 4.50268 35.6977 5.11437L36.4193 1.68426C35.2167 1.19364 33.8938 0.947266 32.6934 0.947266C28.7269 0.947266 25.8407 3.154 25.8407 6.21667C25.8407 8.54659 27.8851 9.76996 29.3282 10.507C30.8895 11.2418 31.4908 11.7324 31.3705 12.4673C31.3705 13.5696 30.1679 14.0602 28.9675 14.0602C27.5244 14.0602 26.0813 13.6928 24.7605 13.079L24.039 16.5112C25.4821 17.1229 27.0433 17.3693 28.4864 17.3693C32.9339 17.4904 35.6977 15.2857 35.6977 11.9767C35.6977 7.8096 30.0477 7.56535 30.0477 5.72817ZM50 17.2461L46.7551 1.31472H43.2698C42.5482 1.31472 41.8267 1.80534 41.5861 2.54022L35.5775 17.2461H39.7844L40.6241 14.9183H45.7931L46.2741 17.2461H50ZM43.8711 5.60505L45.0715 11.6093H41.7064L43.8711 5.60505Z" fill="#172B85"/>
</svg>
