<svg width="74" height="16" viewBox="0 0 74 16" fill="none" xmlns="http://www.w3.org/2000/svg">
<path d="M4.256 12.1621C3.33867 12.1621 2.61333 12.0234 2.08 11.7461C1.55733 11.4581 1.184 11.0208 0.96 10.4341C0.746667 9.83678 0.64 9.07944 0.64 8.16211C0.64 7.25544 0.746667 6.50344 0.96 5.90611C1.184 5.30878 1.55733 4.87144 2.08 4.59411C2.61333 4.30611 3.33867 4.16211 4.256 4.16211H7.616V11.4741H6.24V4.86611L6.864 5.39411H4.256C3.66933 5.39411 3.21067 5.46878 2.88 5.61811C2.56 5.75678 2.336 6.02344 2.208 6.41811C2.08 6.81278 2.016 7.39411 2.016 8.16211C2.016 8.93011 2.07467 9.51144 2.192 9.90611C2.32 10.3008 2.54933 10.5728 2.88 10.7221C3.21067 10.8608 3.66933 10.9301 4.256 10.9301H9.344V12.1621H4.256ZM9.344 12.1621V10.9301C9.48267 10.9301 9.568 10.9834 9.6 11.0901C9.64267 11.1968 9.664 11.3461 9.664 11.5381C9.664 11.7194 9.64267 11.8688 9.6 11.9861C9.568 12.1034 9.48267 12.1621 9.344 12.1621ZM2.656 2.78611V1.29811H4.032V2.78611H2.656ZM4.848 2.78611V1.29811H6.224V2.78611H4.848ZM12.5598 12.1621V10.9301H14.3198V12.1621H12.5598ZM14.3198 12.1621V10.9301C14.4584 10.9301 14.5438 10.9834 14.5758 11.0901C14.6184 11.1968 14.6398 11.3461 14.6398 11.5381C14.6398 11.7194 14.6184 11.8688 14.5758 11.9861C14.5438 12.1034 14.4584 12.1621 14.3198 12.1621ZM9.34375 12.1621V10.9301H11.8558L11.1838 11.4741V4.16211H12.5598V12.1621H9.34375ZM9.34375 12.1621C9.20508 12.1621 9.11975 12.1034 9.08775 11.9861C9.04508 11.8688 9.02375 11.7194 9.02375 11.5381C9.02375 11.3461 9.04508 11.1968 9.08775 11.0901C9.11975 10.9834 9.20508 10.9301 9.34375 10.9301V12.1621ZM9.98375 15.1061V13.6181H11.3598V15.1061H9.98375ZM12.1758 15.1061V13.6181H13.5518V15.1061H12.1758ZM23.2085 12.1621V10.9301H24.9205V12.1621H23.2085ZM14.3125 12.1621V10.9301H22.3125L21.8325 11.3461V8.59411C21.8325 8.01811 21.7578 7.54878 21.6085 7.18611C21.4592 6.81278 21.2352 6.53544 20.9365 6.35411C20.6485 6.17278 20.2805 6.08211 19.8325 6.08211H16.3445L15.3685 4.62611L16.0725 3.26611C16.2005 3.04211 16.3285 2.81278 16.4565 2.57811C16.5952 2.33278 16.7658 2.05011 16.9685 1.73011C17.1712 1.41011 17.4272 1.02078 17.7365 0.562109L18.8725 1.25011C18.5738 1.70878 18.3285 2.09278 18.1365 2.40211C17.9445 2.70078 17.7845 2.96211 17.6565 3.18611C17.5285 3.39944 17.4058 3.61811 17.2885 3.84211L16.5045 5.33011L16.1845 4.83411H19.8325C20.5045 4.83411 21.0592 4.95144 21.4965 5.18611C21.9338 5.41011 22.2752 5.71411 22.5205 6.09811C22.7765 6.47144 22.9525 6.87678 23.0485 7.31411C23.1552 7.75144 23.2085 8.17811 23.2085 8.59411V12.1621H14.3125ZM14.3125 12.1621C14.1738 12.1621 14.0885 12.1034 14.0565 11.9861C14.0138 11.8688 13.9925 11.7194 13.9925 11.5381C13.9925 11.3461 14.0138 11.1968 14.0565 11.0901C14.0885 10.9834 14.1738 10.9301 14.3125 10.9301V12.1621ZM24.9205 12.1621V10.9301C25.0592 10.9301 25.1445 10.9834 25.1765 11.0901C25.2192 11.1968 25.2405 11.3461 25.2405 11.5381C25.2405 11.7194 25.2192 11.8688 25.1765 11.9861C25.1445 12.1034 25.0592 12.1621 24.9205 12.1621ZM28.0099 12.1621V10.9301H29.7379V12.1621H28.0099ZM24.9219 12.1621V10.9301H27.3059L26.6499 11.4741V4.16211H28.0099V12.1621H24.9219ZM24.9219 12.1621C24.7832 12.1621 24.6979 12.1034 24.6659 11.9861C24.6232 11.8688 24.6019 11.7194 24.6019 11.5381C24.6019 11.3461 24.6232 11.1968 24.6659 11.0901C24.6979 10.9834 24.7832 10.9301 24.9219 10.9301V12.1621ZM29.7379 12.1621V10.9301C29.8765 10.9301 29.9619 10.9834 29.9939 11.0901C30.0365 11.1968 30.0579 11.3461 30.0579 11.5381C30.0579 11.7194 30.0365 11.8688 29.9939 11.9861C29.9619 12.1034 29.8765 12.1621 29.7379 12.1621ZM26.6499 2.72211V1.23411H28.0259V2.72211H26.6499ZM29.7344 12.1621V10.9301H32.1184L31.4624 11.4741V4.16211H32.8224V12.1621H29.7344ZM29.7344 12.1621C29.5957 12.1621 29.5104 12.1034 29.4784 11.9861C29.4357 11.8688 29.4144 11.7194 29.4144 11.5381C29.4144 11.3461 29.4357 11.1968 29.4784 11.0901C29.5104 10.9834 29.5957 10.9301 29.7344 10.9301V12.1621ZM31.4624 15.1221V13.6341H32.8384V15.1221H31.4624ZM41.881 12.1621C40.9637 12.1621 40.2383 12.0234 39.705 11.7461C39.1823 11.4581 38.809 11.0208 38.585 10.4341C38.3717 9.83678 38.265 9.07944 38.265 8.16211C38.265 7.25544 38.3717 6.50344 38.585 5.90611C38.809 5.30878 39.1823 4.87144 39.705 4.59411C40.2383 4.30611 40.9637 4.16211 41.881 4.16211H45.241V11.4741H43.865V4.86611L44.489 5.39411H41.881C41.2943 5.39411 40.8357 5.46878 40.505 5.61811C40.185 5.75678 39.961 6.02344 39.833 6.41811C39.705 6.81278 39.641 7.39411 39.641 8.16211C39.641 8.93011 39.6997 9.51144 39.817 9.90611C39.945 10.3008 40.1743 10.5728 40.505 10.7221C40.8357 10.8608 41.2943 10.9301 41.881 10.9301H46.969V12.1621H41.881ZM46.969 12.1621V10.9301C47.1077 10.9301 47.193 10.9834 47.225 11.0901C47.2677 11.1968 47.289 11.3461 47.289 11.5381C47.289 11.7194 47.2677 11.8688 47.225 11.9861C47.193 12.1034 47.1077 12.1621 46.969 12.1621ZM40.281 2.78611V1.29811H41.657V2.78611H40.281ZM42.473 2.78611V1.29811H43.849V2.78611H42.473ZM48.8888 12.1621V0.706109H50.2648V12.1621H48.8888ZM46.9688 12.1621V10.9301H48.8888V12.1621H46.9688ZM46.9688 12.1621C46.8301 12.1621 46.7447 12.1034 46.7127 11.9861C46.6701 11.8688 46.6487 11.7194 46.6487 11.5381C46.6487 11.3461 46.6701 11.1968 46.7127 11.0901C46.7447 10.9834 46.8301 10.9301 46.9688 10.9301V12.1621ZM52.9888 12.1621V0.706109H54.3488V12.1621H52.9888ZM63.491 12.1621V10.9301H65.219V12.1621H63.491ZM59.635 15.7621C59.251 15.7621 58.8457 15.7301 58.419 15.6661C58.003 15.6128 57.5443 15.5328 57.043 15.4261L57.251 14.3221C57.8163 14.3968 58.2857 14.4501 58.659 14.4821C59.043 14.5141 59.3683 14.5301 59.635 14.5301C60.499 14.5301 61.1283 14.3648 61.523 14.0341C61.9177 13.7034 62.115 13.2234 62.115 12.5941V4.97811L62.739 5.39411H60.131C59.5443 5.39411 59.0857 5.46878 58.755 5.61811C58.435 5.75678 58.211 6.02344 58.083 6.41811C57.955 6.81278 57.891 7.39411 57.891 8.16211C57.891 8.93011 57.9497 9.51144 58.067 9.90611C58.195 10.3008 58.4243 10.5728 58.755 10.7221C59.0857 10.8608 59.5443 10.9301 60.131 10.9301H62.115V12.1621H60.131C59.2137 12.1621 58.4883 12.0234 57.955 11.7461C57.4323 11.4581 57.059 11.0208 56.835 10.4341C56.6217 9.83678 56.515 9.07944 56.515 8.16211C56.515 7.25544 56.6217 6.50344 56.835 5.90611C57.059 5.30878 57.4323 4.87144 57.955 4.59411C58.4883 4.30611 59.2137 4.16211 60.131 4.16211H63.491V12.5781C63.491 13.2501 63.3363 13.8261 63.027 14.3061C62.7177 14.7861 62.275 15.1488 61.699 15.3941C61.123 15.6394 60.435 15.7621 59.635 15.7621ZM65.219 12.1621V10.9301C65.3577 10.9301 65.443 10.9834 65.475 11.0901C65.5177 11.1968 65.539 11.3461 65.539 11.5381C65.539 11.7194 65.5177 11.8688 65.475 11.9861C65.443 12.1034 65.3577 12.1621 65.219 12.1621ZM65.2188 12.1621V10.9301H72.2428L71.8268 11.2981V7.47411C71.8268 6.78078 71.6081 6.26344 71.1708 5.92211C70.7441 5.58078 70.0934 5.41011 69.2188 5.41011C68.9414 5.41011 68.5468 5.43678 68.0348 5.49011C67.5334 5.53278 67.0001 5.59144 66.4348 5.66611L66.2747 4.56211C66.7121 4.45544 67.1868 4.36478 67.6988 4.29011C68.2214 4.20478 68.7281 4.16211 69.2188 4.16211C70.0294 4.16211 70.7334 4.29011 71.3308 4.54611C71.9281 4.80211 72.3868 5.17544 72.7068 5.66611C73.0268 6.15678 73.1868 6.75944 73.1868 7.47411V12.1621H65.2188ZM65.2188 12.1621C65.0801 12.1621 64.9947 12.1034 64.9627 11.9861C64.9201 11.8688 64.8987 11.7194 64.8987 11.5381C64.8987 11.3461 64.9201 11.1968 64.9627 11.0901C64.9947 10.9834 65.0801 10.9301 65.2188 10.9301V12.1621Z" fill="#1D242D"/>
</svg>
