<svg width="26" height="13" viewBox="0 0 26 13" fill="none" xmlns="http://www.w3.org/2000/svg">
<path d="M0.52 12.1621V0.706109H1.88V12.1621H0.52ZM10.2863 12.1621V10.9301H11.9983V12.1621H10.2863ZM4.04625 12.1621V10.9301H9.99825L8.91025 11.8901V8.51411C8.91025 7.72478 8.81958 7.10611 8.63825 6.65811C8.46758 6.19944 8.17958 5.87411 7.77425 5.68211C7.36892 5.49011 6.82492 5.39411 6.14225 5.39411H4.84625V4.16211H6.14225C7.01692 4.16211 7.76358 4.30078 8.38225 4.57811C9.00092 4.84478 9.47025 5.29811 9.79025 5.93811C10.1209 6.56744 10.2863 7.42611 10.2863 8.51411V12.1621H4.04625ZM11.9983 12.1621V10.9301C12.1369 10.9301 12.2223 10.9834 12.2543 11.0901C12.2969 11.1968 12.3183 11.3461 12.3183 11.5381C12.3183 11.7194 12.2969 11.8688 12.2543 11.9861C12.2223 12.1034 12.1369 12.1621 11.9983 12.1621ZM20.56 12.1621V10.9301H22.288V12.1621H20.56ZM12 12.1621V10.9301H20L19.184 11.6181V4.86611L19.824 5.39411H17.2C16.6027 5.39411 16.1387 5.46878 15.808 5.61811C15.488 5.75678 15.264 6.02878 15.136 6.43411C15.0187 6.82878 14.96 7.40478 14.96 8.16211C14.96 8.93011 15.0187 9.51144 15.136 9.90611C15.264 10.3008 15.488 10.5728 15.808 10.7221C16.1387 10.8608 16.6027 10.9301 17.2 10.9301V11.8581C16.2827 11.8581 15.5573 11.7408 15.024 11.5061C14.5013 11.2714 14.128 10.8874 13.904 10.3541C13.6907 9.81011 13.584 9.07944 13.584 8.16211C13.584 7.24478 13.6907 6.49278 13.904 5.90611C14.128 5.30878 14.5013 4.87144 15.024 4.59411C15.5573 4.30611 16.2827 4.16211 17.2 4.16211H20.56V12.1621H12ZM12 12.1621C11.8613 12.1621 11.776 12.1034 11.744 11.9861C11.7013 11.8688 11.68 11.7194 11.68 11.5381C11.68 11.3461 11.7013 11.1968 11.744 11.0901C11.776 10.9834 11.8613 10.9301 12 10.9301V12.1621ZM22.288 12.1621V10.9301C22.416 10.9301 22.5013 10.9834 22.544 11.0901C22.5867 11.1968 22.608 11.3461 22.608 11.5381C22.608 11.7194 22.5867 11.8688 22.544 11.9861C22.5013 12.1034 22.416 12.1621 22.288 12.1621ZM15.712 2.78611V1.29811H17.088V2.78611H15.712ZM17.904 2.78611V1.29811H19.28V2.78611H17.904ZM22.2812 12.1621V10.9301H24.6653L24.0093 11.4741V4.16211H25.3693V12.1621H22.2812ZM22.2812 12.1621C22.1426 12.1621 22.0572 12.1034 22.0252 11.9861C21.9826 11.8688 21.9612 11.7194 21.9612 11.5381C21.9612 11.3461 21.9826 11.1968 22.0252 11.0901C22.0572 10.9834 22.1426 10.9301 22.2812 10.9301V12.1621ZM24.0093 2.72211V1.23411H25.3853V2.72211H24.0093Z" fill="#1D242D"/>
</svg>
